<svg width="512" height="512" viewBox="0 0 512 512" fill="none" xmlns="http://www.w3.org/2000/svg">
  <!-- Background -->
  <rect width="512" height="512" fill="#F3F4F1" />
  
  <!-- Wheels -->
  <circle cx="140" cy="340" r="85" stroke="#1A472A" stroke-width="18" fill="none"/>
  <circle cx="372" cy="340" r="85" stroke="#1A472A" stroke-width="18" fill="none"/>
  
  <!-- Hubs -->
  <circle cx="140" cy="340" r="10" fill="#1A472A"/>
  <circle cx="372" cy="340" r="10" fill="#1A472A"/>

  <!-- Frame & House Structure -->
  <path d="
    M 140 340 
    L 205 210 
    L 315 210 
    L 372 340
    M 205 210
    L 245 340
    L 315 210
    M 245 340
    L 140 340
  " stroke="#1A472A" stroke-width="14" stroke-linecap="round" stroke-linejoin="round" fill="none"/>

  <!-- Seat Post & Saddle -->
  <path d="M 205 210 L 195 180" stroke="#1A472A" stroke-width="14" stroke-linecap="round"/>
  <path d="M 160 175 Q 160 165 200 165 L 230 165 Q 240 165 240 175 L 160 175 Z" fill="#1A472A"/>

  <!-- Handlebars -->
  <path d="M 315 210 L 335 160 L 375 160 Q 405 160 405 190 Q 405 210 385 210" stroke="#1A472A" stroke-width="14" stroke-linecap="round" stroke-linejoin="round" fill="none"/>

  <!-- Roof -->
  <path d="M 215 135 L 325 80 L 325 160" stroke="#1A472A" stroke-width="14" stroke-linecap="round" stroke-linejoin="round" fill="none"/>
  
  <!-- Windows -->
  <rect x="250" y="140" width="18" height="18" fill="#1A472A"/>
  <rect x="275" y="140" width="18" height="18" fill="#1A472A"/>
  <rect x="250" y="165" width="18" height="18" fill="#1A472A"/>
  <rect x="275" y="165" width="18" height="18" fill="#1A472A"/>

  <!-- Detail on frame -->
  <rect x="275" y="270" width="10" height="25" fill="#1A472A"/>
</svg>
