<svg viewBox="0 0 5183 1004" preserveAspectRatio="xMidYMid meet" data-bbox="0 0 5183 1004" height="1004" width="5183" xmlns="http://www.w3.org/2000/svg" data-type="ugc" role="presentation" aria-hidden="true" aria-label="">
    <g>
        <path fill="#FEFEFE" d="M0 0h5183v1004H0z"></path>
        <path fill="#FDC52E" d="m941.625 98.75 2.422-.003c11.625.01 22.604.577 33.953 3.253q2.178.445 4.36.879c11.426 2.327 22.52 5.638 33.64 9.121v2l1.828.367 2.422.508 2.39.492c2.328.625 4.25 1.481 6.36 2.633v2l1.71.375c2.442.666 4.613 1.578 6.915 2.625l2.352 1.063A150 150 0 0 1 1044 126v2l2.035.664c3.886 1.75 7.026 4.133 10.402 6.711l2.129 1.615c18.913 14.493 35.02 30.394 48.454 50.127 1.157 1.685 2.349 3.35 3.617 4.953 1.56 2.208 2.381 4.417 3.363 6.93q1.339 2.179 2.75 4.313c3.13 5.093 5.134 10.34 7.135 15.94 1.222 3.407 2.47 6.65 4.24 9.81 2.324 4.298 3.345 9.029 4.481 13.748.79 3.226 1.526 5.387 3.394 8.189.547 2.255.547 2.255.965 4.918l.486 3.06.486 3.21.475 2.962c.564 3.612 1.083 7.23 1.588 10.85l.356 2.521c2.26 16.215 3.584 32.378 4.332 48.729l.095 2.004c2.695 56.813 1.472 113.885 1.217 170.746l1.658-1.452 2.179-1.907 2.158-1.89q2.303-2.01 4.614-4.009c3.877-3.382 7.187-6.711 10.391-10.742q1.757-1.589 3.563-3.125c6.392-5.459 12.17-11.56 18.066-17.543 1.823-1.793 3.622-3.436 5.621-5.02 2.767-2.016 2.767-2.016 3.75-4.312h5v-3c1.645-1.719 1.645-1.719 3.813-3.5 3.016-2.497 3.016-2.497 5.824-5.219C1214 437 1214 437 1216 437v-2c9.549-7.484 21.52-11.669 33.594-11.434 13.187 1.679 23.604 12.373 31.406 22.434v2l3 1v3l1.813.563c2.683 1.763 3.225 3.573 4.34 6.507 1.162 2.648 2.797 4.786 4.566 7.059 4.882 7.13 5.158 13.432 4.281 21.871-1.015 3.523-2.32 6.744-4 10h-2l-1 3a281 281 0 0 1-5 5l-2.25 2.938c-2.742 3.401-6.168 5.491-9.86 7.765-2.026 1.166-2.026 1.166-2.89 3.297l-3 1a144 144 0 0 0-3.469 3.457c-1.845 1.86-3.765 3.61-5.718 5.356l-2.043 1.832C1256 533 1256 533 1254 533v2l-1.687.688c-2.325 1.319-3.865 2.835-5.696 4.757-2.09 2.01-4.338 3.763-6.617 5.555a101 101 0 0 0-10 9c-1.969 1.709-3.978 3.354-6 5 1.378 3.215 2.886 4.972 5.625 7.125 1.914 1.508 1.914 1.508 3.375 2.875v2l1.688.75c2.736 1.48 4.989 3.185 7.312 5.25v2l1.75.813c2.306 1.216 4.27 2.49 6.25 4.187v2l1.563.688c3.332 1.794 6.584 3.812 9.437 6.312v2l1.781.823c2.182 1.158 3.85 2.403 5.723 4.005l1.98 1.667 2.079 1.755c6.162 5.123 12.137 9.363 19.437 12.75v2l2.64.844c4.104 1.412 8.011 3.164 11.97 4.937 8.958 3.22 17.563 3.481 27.015 3.344l3.621-.027q4.377-.036 8.754-.098v-2l2.336-.805 3.039-1.07 3.023-1.055c2.706-.918 2.706-.918 4.602-3.07l-.805-2.414L1355 608l-1.031-2.922c-9.395-29.851-6.346-70.375 7.976-98.281a307 307 0 0 1 5.119-9.175A69 69 0 0 0 1369 494h2l.191-2.074c1.095-3.96 3.217-6.556 5.746-9.738l1.381-1.811c1.173-1.503 2.423-2.946 3.682-4.377h2l.2-1.746c1.124-3.166 2.957-4.284 5.612-6.317 3.721-2.921 7.264-5.882 10.691-9.14 12.697-12.06 29.06-20.84 45.497-26.797l2.379-1.016c14.974-6.127 31.598-6.537 47.559-6.421l2.639.007c12.843.054 25.056.67 37.423 4.43l3.164.945c2.684.9 5.243 1.92 7.836 3.055l3.195 1.375c6.146 2.738 11.952 5.757 17.657 9.32 2.29 1.443 2.29 1.443 5.46 2.868 3.197 1.71 5.13 3.864 7.688 6.437 2.13 1.878 4.313 3.689 6.5 5.5 4.03 3.338 7.839 6.748 11.5 10.5l1.813 1.688C1602 472 1602 472 1602 474l1.875.625c2.972 1.923 3.255 4.04 4.125 7.375h2v2h2c3.092 3.392 5.022 6.886 7 11q1.177 2.13 2.375 4.25c5.801 10.397 10.427 19.866 12.098 31.723.48 3.106.48 3.106 1.52 6.355 1.134 4.135 1.653 8.104 2.07 12.36l.236 2.142c1.621 15.827 1.856 31.759 1.834 47.654q0 2.697.003 5.392.002 5.602-.006 11.203-.006 5.66 0 11.32c.015 12.201-.01 24.4-.13 36.601l-.02 2.08a681 681 0 0 1-.238 12.06l-.041 2.775c-.223 5.887-1.692 10.045-4.701 15.085l-1.75 3.125c-5.258 6.718-11.809 10.638-20.25 11.875-11.257.919-21.583.743-32-4v-2l-1.75-.687c-3.944-2.301-6.611-6.08-8.25-10.313v-4h-2v-2c-3.074 1.677-5.624 3.518-8.187 5.875C1538.83 712 1506.109 712.236 1480 711c-8.984-.736-17.43-2.32-25.93-5.312-1.99-.661-3.962-1.17-6.007-1.625-5.533-1.325-11.985-2.985-16.063-7.063-3.541.36-6.164 2.193-9.125 4.063C1418.216 704 1418.216 704 1416 704v2l-2.371.805-3.066 1.07-3.06 1.055c-2.643.81-2.643.81-3.503 3.07a153 153 0 0 1-7.812 3c-4.182 1.502-8.213 3.008-12.188 5-27.998 9.033-62.895 10.541-91.312 2.727-3.481-.941-6.991-1.625-10.532-2.297A111 111 0 0 1 1276 719v-2l-3.5-.312c-4.512-.548-8.306-1.965-12.5-3.688v-2l-2.375-.125c-4.366-1.054-7.49-3.014-11.258-5.402A64 64 0 0 0 1240 702v-2l-1.672-.266c-3.05-.961-5.037-2.54-7.578-4.484l-1.544-1.179c-8.503-6.546-16.825-13.348-25.022-20.274l-1.667-1.407c-2.453-2.247-4.426-4.804-6.517-7.39-4.156-4.34-8.667-8.007-13.379-11.719-2.583-2.248-4.52-4.59-6.621-7.281a82 82 0 0 0-3.625-3.187c-4.243-3.618-8.12-7.537-12.031-11.508a76 76 0 0 0-5.969-5.305l-2.375-2v-2l-1.937-.437C1148 621 1148 621 1147 620l-.011 2.242q-.056 10.524-.173 21.048-.061 5.409-.087 10.818-.025 5.233-.097 10.465a580 580 0 0 0-.026 5.88c-.13 7.966-1.425 14.256-4.606 21.547-.37 1.012-.37 1.012-.75 2.045-2.12 5.639-5.47 9.14-10.687 12.018-11.356 5.11-22.074 6.624-34.438 6.437l-2.116-.014c-25.069-.191-25.069-.191-34.009-7.486l-2.437-1.187c-6.586-4.659-9.743-13.3-11.17-20.96-.703-5.109-.673-10.195-.658-15.345l-.013-3.709q-.014-5.06-.01-10.12c.001-3.65-.01-7.3-.02-10.951q-.022-9.495-.028-18.992c-.005-9.218-.024-18.436-.046-27.654a50488 50488 0 0 1-.09-47.859l-.06-40.654-.004-2.677q-.034-22.395-.088-44.791-.031-12.511-.04-25.023c-.022-32.14-.183-64.257-1.232-96.383-.04-1.228-.078-2.456-.118-3.722-.816-26.81-.816-26.81-4.861-53.286l-.528-2.49A777 777 0 0 0 1037 272l-.444-2.074c-1.651-7.628-4.066-14.565-7.494-21.551l-.98-2.01c-2.158-4.175-4.65-7.097-8.082-10.365l-.437-2c-.795-2.825-2.707-3.965-4.954-5.715-2.387-1.906-4.45-4.127-6.609-6.285-3.747-3.358-3.747-3.358-8-6v-2l-2.5-.687c-2.81-1.054-4.78-2.029-7.25-3.625-20.72-13.243-45.09-14.907-69-11.375l-2.45.356c-8.212 1.336-15.347 4.42-22.737 8.143l-2.105 1.053c-4.649 2.366-9.021 4.95-13.259 8.006C879 217 879 217 876 218v2a1675 1675 0 0 1-4.918 4.086c-4.858 4.466-9.343 9.88-12.082 15.914h-2l-.758 1.95c-.977 2.4-1.994 4.765-3.047 7.132-4.151 9.419-7.722 18.596-9.75 28.715a223 223 0 0 1-.96 4.508c-2.931 13.275-3.988 26.588-4.594 40.132l-.129 2.813c-1.382 31.535-.989 63.133-.906 94.69.023 8.863.033 17.728.043 26.592q.033 27.234.101 54.468l2.375-2.5C842 496 842 496 844 496l1-3c1.742-1.684 1.742-1.684 3.875-3.437 2.231-1.84 4.041-3.449 5.758-5.786L856 482h2v-2c1.68-1.727 1.68-1.727 3.875-3.625l2.18-1.914C866 473 866 473 868 473l2-4h2l.688-1.75c1.66-2.846 3.704-4.248 6.312-6.25l2.625-2.687C884 456 884 456 887 455l.855-1.785c1.575-3.048 3.765-4.55 6.457-6.652 2.971-2.33 5.739-4.614 8.399-7.297 2.231-2.209 3.234-2.927 6.289-3.266v-2c12.88-7.343 22.16-9.71 37-9l3 1v2l1.793.357c3.66 1.066 6.256 3.487 9.207 5.83l1.867 1.424c3.919 3.082 6.496 6.1 9.133 10.389a873 873 0 0 0 6.977 9c2.005 2.973 3.071 5.56 4.023 9h2c4.759 7.988 7.545 14.625 6 24-1.712 5.478-5.218 9.872-8.73 14.336-1.34 1.648-1.34 1.648-2.27 3.664h-3c-.235.57-.47 1.14-.71 1.727-3.771 6.65-11.426 11.5-17.54 15.925-2.015 1.492-2.015 1.492-4.562 4.16C951 530 951 530 948 531l-1 3h-3l-1 3c-1.742 1.5-1.742 1.5-3.875 3-2.087 1.479-3.977 2.847-5.758 4.688C932 546 932 546 930 546v2a105 105 0 0 1-5.187 4.375l-2.918 2.336a332 332 0 0 1-5.758 4.453L914 561v2c1.743 1.61 1.743 1.61 4 3.25l2.492 1.887 4.64 3.445c9.96 7.401 9.96 7.401 12.868 10.418v2l1.688.188c3.245 1.14 4.936 3.375 7.312 5.812l3 1v2l1.734.77c2.532 1.374 4.392 2.973 6.516 4.918l2.387 2.16L963 603c3.79 3.406 7.574 6.738 11.688 9.75 5.517 4.056 10.663 8.56 15.86 13.014a298 298 0 0 0 3.632 3.033c7.086 5.857 14.884 13.605 15.82 23.203l.375 3.563c-.075 7.87-4.767 15.601-8.375 22.437h-2l-.375 2.438L999 683l-2 1a418 418 0 0 0-3 5c-2.873 3.775-5.922 7.391-9 11l-1.652 1.988c-6.209 6.872-15.806 13.333-25.223 13.95-10.53-.75-24.826-7.322-32.125-14.938-3.002-2.127-5.503-3.834-9-5l-1.687-2.125c-3.879-4.821-8.734-8.584-13.5-12.5-2.763-2.333-5.292-4.785-7.813-7.375l-1.812-1.687C891 671 891 671 891 669l-1.625-.687c-4.584-2.534-8.07-5.862-11.437-9.813-6.988-8.183-14.781-15.856-22.977-22.824-3.184-2.721-6.268-5.554-9.371-8.367a407 407 0 0 0-6.252-5.453l-1.898-1.625L836 619l.038 3.174q.486 40.692.88 81.384.073 7.673.155 15.345c.306 28.537-.216 56.685-3.073 85.097h-2l.11 3.39c-.005 4.927-.856 9.55-1.86 14.36l-.545 2.661c-1.42 6.72-3.274 13.161-5.705 19.589l-.777 2.219c-1.465 4.116-3.256 7.965-5.254 11.847-.891 1.779-1.685 3.605-2.469 5.434-2.558 5.97-5.274 11.323-9.156 16.531-1.599 2.342-2.895 4.775-4.219 7.282-5.26 9.764-11.759 17.708-19.355 25.707a85 85 0 0 0-4.891 5.648c-1.785 2.215-3.593 3.992-5.754 5.832-.696.594-1.392 1.189-2.11 1.8L768 928l-1.64 1.418c-3.291 2.814-6.725 5.234-10.36 7.582l-3.25 2.25C750 941 750 941 748 941v2l-5.371 2.93c-1.795.984-1.795.984-2.629 3.07a81 81 0 0 1-5.5 1.875c-4.57 1.458-8.922 3.076-13.27 5.098L719 957l-2.906 1.395c-5.705 2.426-11.782 3.737-17.782 5.23l-3.646.945c-26.201 6.568-57.463 5.559-83.666-.57l-2.504-.585C590.681 959.005 571.572 950.181 557 939l-1-3-2.312-.312c-2.872-.735-3.918-1.36-5.688-3.688v-2l-2.187-.75c-3.109-1.381-5.34-2.919-7.813-5.25v-3l-1.805-.824C527.958 915.764 522.468 906.343 517 899l-1.645-2.184C509 888.196 509 888.196 509 884h-2l-1-4h-2l-2.05-5.078c-.91-2.003-.91-2.003-2.438-3.84-1.69-2.327-2.48-4.42-3.387-7.144a120 120 0 0 0-4.75-11.688C488.832 846.765 487 842.13 487 836h-2c-2.774-8.183-4.367-16.47-5.66-25l-.335-2.198c-1.846-12.502-2.46-24.86-2.501-37.49l-.009-2.641c-.012-7.14.033-14.278.09-21.418.04-5.4.058-10.8.042-16.201.002-2.482.039-4.96.077-7.441.038-9-.999-15.337-6.704-22.611a456 456 0 0 1-3.187-4.812l-1.489-2.211C461 687.522 461 687.522 461 685l-3-1a148 148 0 0 1-2.066-5.57c-2.988-7.777-7.788-14.944-12.004-22.102a441 441 0 0 1-4.235-7.469l-1.198-2.157a828 828 0 0 1-2.301-4.183c-2.118-3.82-4.442-7.114-7.196-10.519a95 95 0 0 1-2.75-5.187l-1.297-2.606C424 622 424 622 424 620h-2l-2-8h-2c-1.516-2.238-1.516-2.238-3.25-5.312l-1.879-3.313a1145 1145 0 0 1-6.516-11.89 230 230 0 0 0-3.73-6.548C401 582 401 582 401 580h-2q-1.256-2.434-2.5-4.875l-1.406-2.742C394 570 394 570 394 568h-2q-1.256-2.434-2.5-4.875l-1.406-2.742C387 558 387 558 387 556h-2l-1.363-2.648a331 331 0 0 0-12.324-21.664c-3.354-5.408-6.555-10.777-9.266-16.543-1.104-2.261-2.372-4.367-3.672-6.52-4.468-7.963-6.856-17.765-4.906-26.797 4.46-15.398 16.28-24.123 29.531-31.828l5.188-3.25c11.366-6.769 24.861-11.098 38.144-8.25 4.712 1.586 8.121 4.042 11.668 7.5v2h2c1.438 2.188 1.438 2.188 3 5l1.688 2.688C446 458 446 458 446 460h2l12.27 24.54 1.043 2.085 1.98 3.965a994 994 0 0 0 4.312 8.55l1.395 2.735 1.188 2.305C471 506 471 506 471 508h2l1.54 3.113c3.592 7.242 7.242 14.425 11.155 21.5 1.867 3.415 3.594 6.892 5.305 10.387 2.677 5.484 2.677 5.484 5.75 10.75C498 556 498 556 498 560h2l2.54 5.082 2.181 4.356c1.704 3.403 3.404 6.807 5.076 10.226l1.578 3.211 1.398 2.867c1.15 2.37 1.15 2.37 3.227 4.258a88 88 0 0 1 2 4.813l1 2.582q1.02 2.658 2.023 5.324c1.015 2.37 2.138 3.526 3.977 5.281v2c3.314-2.998 5.224-5.935 7.188-9.937l1.542-3.09c1.154-2.7 1.828-5.082 2.27-7.973h2l1-5h2l.773-2.54c1.339-3.775 3.028-7.28 4.852-10.835l2.148-4.238 1.113-2.186a838 838 0 0 0 3.278-6.556l1.06-2.138q.995-2.005 1.985-4.014c2.756-5.538 5.823-10.86 8.979-16.18 1.412-2.582 2.355-4.454 2.812-7.313h2l.688-2.937c1.555-5.483 4.266-11.017 8.312-15.063.643-2.069.643-2.069 1-4h2l.516-1.977c1.492-5.38 3.149-9.475 6.484-14.023 2.391-3.847 4.358-7.733 6.094-11.922C599.92 467.008 605.772 455.953 614 447h2v-2l4-1v-2h4v-2c14.662-4.6 28.915 1.156 41.797 7.828L668 449v2l2.063.75c9.251 3.937 17.024 10.063 22.937 18.25l1.625 1.938c4.646 6.97 4.45 16.02 3.375 24.062-1.795 7.598-4.79 15.187-9.738 21.273-1.637 2.24-2.747 4.602-3.95 7.102-3.623 7.452-7.867 14.5-12.113 21.608-1.716 2.887-3.394 5.796-5.074 8.705-1.71 2.95-3.433 5.756-5.375 8.562-2.202 3.46-3.414 6.876-4.75 10.75h-2l-.625 2.375c-2.14 5.644-5.268 10.862-8.93 15.664-1.473 2-2.553 3.978-3.633 6.211l-1.042 2.14L640 602h-2v4h-2l-.668 2.418c-1.72 4.627-4.125 8.662-6.644 12.894q-1.433 2.431-2.864 4.864l-1.412 2.397c-2.197 3.776-4.31 7.598-6.412 11.427h-2l-.812 3.188c-1.06 3.403-2.102 5.944-4.188 8.812h-2l-1 6-3 1-.812 2.5c-1.1 3.24-2.257 5.232-4.188 8-2.36 3.403-3.96 6.446-5 10.5h-2l-.758 2.57c-1.338 3.696-3.115 6.944-5.117 10.305-2.9 4.961-5.638 9.943-8.125 15.125h-2c-1.616 8.236-2.321 16.114-2.25 24.5l.018 3.584c.24 22.582.764 45.73 5.232 67.916l.684 3.438c1.628 7.213 4.332 13.814 7.316 20.562l1.625 4.063c1.245 2.658 2.247 4.012 4.375 5.937v2h2c4 5.412 4 5.412 4 8l1.688.688c2.934 1.665 4.934 3.934 7.312 6.312l3 1 1 2c17.514 11.145 39.937 13.714 60.195 10.41 9.48-2.184 17.652-6.716 26.042-11.473C701 856 701 856 703.961 854.852L706 854l.5-2 .5-2 5-2q.526-1.993 1-4c1.164-1.613 1.164-1.613 2.625-3.312 24.356-31.698 21.695-79.138 21.592-116.763-.01-4.818-.01-9.637-.01-14.455q-.004-12.493-.026-24.986-.029-18.12-.035-36.24-.015-29.488-.05-58.975l-.004-3.556-.005-3.559a195331 195331 0 0 1-.1-112.13q-.01-18.04-.036-36.082-.018-12.396-.025-24.792-.005-7.116-.018-14.231c-.036-18.171.036-36.328.539-54.492l.06-2.209c.933-33.493 2.73-69.462 14.493-101.218h2l.313-2.937c1.002-6.906 3.558-13.114 6.769-19.266 1.129-2.21 2.047-4.475 2.918-6.797h2l2-8h2l.36-1.761c.672-2.352 1.575-4.004 2.89-6.06l1.344-2.12 1.406-2.184 2.75-4.32 1.234-1.923c1.07-1.662 1.07-1.662 2.016-3.632h2l.73-2.152c1.462-3.278 3.296-5.648 5.582-8.41l2.301-2.817c2.299-2.524 4.71-4.516 7.387-6.621 1.312-2.117 1.312-2.117 2-4h2v-2c1.61-1.48 3.291-2.885 5-4.25l3.031-2.43a321 321 0 0 1 9.313-7.03c1.674-1.244 1.674-1.244 3.052-2.72 2.666-2.609 5.766-4.557 8.854-6.632l1.95-1.354c4.193-2.823 7.868-4.453 12.8-5.584v-2l6-1v-2l10-3v-2l3.5-.812c3.56-.889 6.92-2.038 10.337-3.362 7.403-2.828 14.657-4.649 22.476-5.951l2.896-.512c12.786-2.184 25.478-2.602 38.416-2.613"></path>
        <path fill="#91D9CE" d="m3133.5 306.813 3.688-.037c10.088-.016 20.193.29 29.312 5.037.96.48 1.918.962 2.906 1.457 6.994 4.666 9.49 12.2 11.182 20.09.784 5.026.671 10.06.64 15.137v3.698q-.003 4.98-.025 9.96c-.013 3.479-.014 6.958-.016 10.437q-.011 9.865-.043 19.73c-.022 7.492-.033 14.984-.043 22.476Q3181.069 437.9 3181 461l3.781-3.301 2.127-1.857a476 476 0 0 0 5.592-5.017c17.432-14.854 41.859-15.257 63.5-13.824 5.58.67 10.69 2.145 16 4l3.953 1.25c13.847 4.58 25.697 12.357 36.723 21.8 1.968 1.65 3.923 3.058 6.074 4.45 3.59 2.473 5.943 5.709 8.477 9.218 2.064 2.656 4.382 4.916 6.773 7.281 6.484 7.173 11.775 14.278 16 23l1.157 2.32c17.36 34.806 20.637 71.088 8.968 108.513-3.022 8.509-6.303 16.597-11.607 23.948-1.443 2.11-2.634 4.227-3.819 6.489-2.524 4.594-5.48 8.58-8.824 12.606l-1.727 2.092c-14.551 17.416-34.674 36.118-57.148 42.033q-2.097.707-4.187 1.437-2.406.783-4.813 1.563l-2.398.859c-20.02 6.223-47.426 3.058-66.204-6.133-5.822-3.263-10.56-7.36-15.367-11.969-1.835-1.976-1.835-1.976-4.031-1.758l-.848 1.977c-3.767 8.213-8.479 13.411-16.782 17.148-9.433 3.486-19.897 3.24-29.807 3.25l-3.987.075c-11.487.034-22.759-1.57-31.576-9.45-8.634-10.552-8.149-24.019-8.14-36.94l-.01-4.252a6194 6194 0 0 1-.01-11.643q-.005-6.286-.016-12.573-.02-13.736-.024-27.471l-.012-17.163q-.019-23.775-.026-47.549v-6.15l-.003-9.27q-.008-24.818-.045-49.637-.035-25.5-.037-51 .001-14.31-.025-28.62-.023-12.184-.012-24.368.008-6.211-.011-12.424-.019-5.695 0-11.392c.003-2.01-.008-4.021-.02-6.032.052-9.793.647-22.637 7.903-30.062 5.727-4.851 12.328-6.607 19.488-8.454l1.804-.537c5.104-1.075 10.502-.647 15.696-.65"></path>
        <path fill="#91D9CE" d="m2040 336 2.016.68c10.229 3.504 19.592 7.987 28.984 13.32l3.219 1.785c27.228 15.404 27.228 15.404 31.328 27.88 1.9 9.793 1.1 19.512-3.547 28.335l-1.156 2.383A257 257 0 0 1 2098 416h-2l-.734 2.195c-1.43 3.17-3.14 5.15-5.516 7.68-2.674 2.865-5.232 5.712-7.625 8.813-3.835 4.546-9.016 7.387-14.125 10.312l-1.984 1.152c-5.485 2.307-11.73 2.147-17.236-.03-8.209-3.931-15.723-8.803-22.73-14.599-7.538-5.6-17.142-8.011-26.05-10.523l-2.18-.656c-23.977-6.766-53.457-1.58-75.136 10.074a260 260 0 0 0-11.309 7.066C1909 439 1909 439 1906.832 440.063c-2.799 1.432-4.643 3.697-6.832 5.937a888 888 0 0 1-3.375 2.625c-3.906 3.296-6.31 7.234-8.934 11.582-1.519 2.509-3.132 4.894-4.816 7.293-14.335 21.58-16.495 52.547-11.625 77.5 2.107 9.248 4.68 17.948 9.75 26l1.34 2.328c3.771 6.522 7.883 13.067 13.367 18.3C1897 593 1897 593 1897 595c.576.264 1.152.529 1.746.8 2.363 1.258 4.246 2.696 6.316 4.388C1918.13 610.474 1932.09 616.623 1948 621l1.966.577c7.27 1.91 14.625 1.778 22.097 1.736l2.096-.008c21.01-.117 41.005-4.002 57.841-17.305 8.661-6.464 18.673-12.007 29.79-11.36 5.79.942 10.607 3.88 15.21 7.36v2l1.691.645c3.078 1.806 5.045 4.297 7.247 7.043l1.344 1.656A722 722 0 0 1 2091 618l1.516 1.855C2101.27 631.208 2107.434 645.6 2106 660c-4.472 15.52-19.922 23.975-33.175 31.308l-1.731.954a88 88 0 0 0-6.969 4.363c-5.538 3.548-11.973 5.473-18.138 7.66-1.94.698-3.86 1.434-5.784 2.176C2001.493 721 1955.146 724.034 1916 709q-1.962-.496-3.937-.937c-2.88-.684-5.45-1.595-8.145-2.82l-2.39-1.086L1899 703l-2.545-1.148c-21.532-9.77-40.658-21.25-58.455-36.852l-2.084-1.807c-12.363-10.745-22.211-22.558-31.353-36.068l-1.252-1.837c-2.63-3.96-4.501-7.894-6.311-12.288a117 117 0 0 0-2.312-3.937c-3.756-6.654-6.194-13.867-8.688-21.063l-.688-1.982c-16.842-49.26-14.554-106.734 7.942-153.819 6.8-13.672 15.274-27.073 25.434-38.512l1.699-1.925L1822 390l1.582-1.73C1825 387 1825 387 1827 387v-2c1.363-1.41 1.363-1.41 3.313-3.062.728-.62 1.456-1.238 2.207-1.875L1835 378c.89-.743 1.781-1.485 2.7-2.25 57.715-47.654 131.291-63.673 202.3-39.75"></path>
        <path fill="#91D9CE" d="M3038.375 444.438c8.69 8.483 9.922 21.88 10.113 33.474a763 763 0 0 1-.018 11.223q0 3.114.007 6.23c.005 5.59-.014 11.18-.038 16.77-.022 5.871-.021 11.742-.023 17.613q-.011 14.77-.06 29.541c-.04 12.626-.057 25.252-.067 37.877q-.014 16.326-.045 32.65l-.01 6.99q-.014 9.956-.048 19.912-.009 3.01-.013 6.021-.007 4.119-.026 8.239v2.387c-.065 11.056-1.366 20.527-8.397 29.51-14.35 11.09-32.847 10.63-50.275 8.87-7.43-1.017-14.593-2.734-21.475-5.745v-2l-1.812-.75c-2.504-1.43-3.669-2.819-5.188-5.25v-2h-2c-1.316-3.62-2-6.095-2-10l-2.152 2.192c-17.97 17.723-37.605 23.98-62.66 23.996l-3.08.037c-14.762.028-27.932-3.755-41.108-10.225l-3.469-1.644c-19.94-9.775-40.08-27.295-51.531-46.356l-1.512-2.308C2788 646.33 2788 646.33 2788 644h-2c-9.508-19.376-17.2-38.074-18-60l-.099-2.455c-.418-11.88.039-23.356 1.912-35.107l.5-3.151c.965-5.539 2.261-10.222 4.687-15.287l1.508-3.656c6.428-15.414 14.868-28.498 25.492-41.344l1.31-1.617c2.294-2.811 4.599-5.362 7.378-7.695 3.078-2.613 6.048-5.307 9-8.062 21.057-18.908 45.718-28.756 74-28.875l3.646-.063c10.985-.047 20.74 2.018 30.729 6.563l2.044.92c10.136 4.675 17.918 10.016 24.893 18.83l.96-2.782c3.766-9.9 7.947-15.896 17.884-20.55 17.954-6.98 48.68-7.525 64.531 4.769"></path>
        <path fill="#91D9CE" d="M4033.625 443.688c7.628 7.428 10.433 16.635 10.71 27.075.06 4.687.044 9.371.021 14.058q.001 3.172.007 6.345a4411 4411 0 0 1-.026 17.169c-.015 5.999-.014 11.998-.015 17.996a16119 16119 0 0 1-.04 30.215c-.03 12.915-.04 25.83-.044 38.745-.004 11.12-.017 22.24-.03 33.361q-.007 5.35-.01 10.7-.008 8.415-.03 16.83-.007 3.084-.008 6.167-.004 4.218-.02 8.436l.003 2.447c-.057 11.317-1.891 20.125-8.143 29.769-2.461 2.387-4.834 3.73-8 5l-2.004.91c-15.299 6.437-40.395 5.473-55.996.09-9.114-4.775-13.319-10.534-17-20v-3l-2 2.062c-18.277 18.123-39.457 24.218-64.787 24.254-15.14-.193-28.823-3.136-42.213-10.317l-3.562-1.707c-19.896-9.682-40.057-27.3-51.438-46.293l-1.23-1.886c-1.304-2.012-2.538-4.057-3.77-6.114l-1.84-2.976c-18.656-31.154-22.876-68.21-14.285-103.336 6.738-25.889 21.445-51.46 42.008-68.879a140 140 0 0 0 4.172-3.71c6.213-5.747 12.918-10.408 19.945-15.099l3.16-2.171c2.254-1.451 4.083-2.485 6.59-3.329 2.16-.748 4.262-1.505 6.352-2.433 19.203-8.48 45.029-11.419 65.007-4.266l2.891 1.2 3.14 1.167c11.804 4.582 22.073 10.739 29.86 20.832l2 1 .078-1.722c.426-5.803 1.72-9.423 4.922-14.278h2v-2c14.757-16.99 56.39-13.392 73.625-2.312"></path>
        <path fill="#91D9CE" d="M2534.5 311.813c.96.48 1.918.962 2.906 1.457 4.488 2.994 6.858 6.7 8.782 11.668l.98 2.465c1.52 4.743 1.957 9.37 1.952 14.33l.004 3.39-.01 3.676v3.904q-.001 5.28-.013 10.56-.007 5.526-.008 11.051-.005 10.455-.021 20.91-.015 11.904-.022 23.81-.016 24.483-.05 48.967a1183 1183 0 0 0 7.492-7.536c14.262-14.017 32.408-23.913 52.758-23.777l2.603.01c12.724.21 26.195 1.739 38.147 6.303l2.906 1.09c6.807 2.69 12.946 5.957 19.094 9.91l2.164 1.292c7.417 4.599 13.586 10.67 19.836 16.707l2.594 2.5c29.49 30.64 36.898 68.574 36.875 109.686q.002 4.314.017 8.626.027 10.18.015 20.36c-.007 6.962.016 13.924.053 20.887q.045 9.036.038 18.073c-.002 3.578.004 7.156.028 10.735.027 3.985.013 7.97-.005 11.956l.04 3.519c-.093 9.205-2.448 17.609-7.905 25.159-3.587 3.26-7.24 4.838-11.75 6.5l-3.062 1.187c-16.482 4.559-40.531 4.224-56.063-3.375-6.524-4.17-10.03-10.089-12.332-17.344-1.596-7.257-1.689-14.422-1.685-21.819l-.01-3.369q-.011-3.606-.017-7.212-.012-5.721-.041-11.442c-.052-10.842-.1-21.683-.116-32.525-.01-6.642-.04-13.284-.081-19.926q-.02-3.781-.015-7.563c.1-24.712.1-24.712-11.719-45.843-9.756-9.285-21.542-11.365-34.465-11.322-11.738.307-20.724 4.426-29.624 12.135C2563 543 2563 543 2560 544a88 88 0 0 0-2 4c-.96 1.175-.96 1.175-1.937 2.375-4.602 5.856-6.18 11.416-6.201 18.752-.005 1.01-.01 2.021-.017 3.062l-.003 3.327-.015 3.53q-.016 3.793-.026 7.585-.019 6.01-.053 12.02c-.062 11.39-.116 22.781-.15 34.172q-.027 9.442-.087 18.886-.032 4.989-.04 9.977c-.004 3.717-.027 7.433-.054 11.15l.009 3.296c-.11 10.152-2.275 21.57-9.613 29.117-17.398 10.825-41.798 10.09-61.297 5.715-7.837-2.15-13.06-5.131-17.202-12.293-4.551-9.25-4.747-19.137-4.695-29.245q-.005-2.156-.014-4.312c-.013-3.917-.007-7.835.003-11.752.007-4.238-.004-8.475-.012-12.712-.013-8.288-.01-16.577-.002-24.865q.01-10.108.005-20.216l-.002-2.911-.003-5.856c-.008-18.285.002-36.57.018-54.854q.018-23.51-.003-47.02a39409 39409 0 0 1-.01-60.498l.001-2.899q.003-10.09-.009-20.181-.013-12.306.01-24.61c.008-4.181.011-8.363.001-12.545q-.013-5.75.012-11.503a811 811 0 0 0-.015-6.091c.072-11.41 1.128-22.131 9.401-30.601l1.418-1.458c15.018-12.778 50.638-11.29 67.082-2.73"></path>
        <path fill="#91D9CE" d="M2267.018 429.892c33.742-.982 63.847 4.768 91.982 24.108l2.73 1.863c8.848 6.227 16.674 13.456 24.27 21.137l2.325 2.332c26.451 27.763 35.48 64.507 34.922 101.879-1.065 38.346-19.382 73.3-46.715 99.535-18.5 17.282-41.928 28.57-66.532 34.254l-3.875.902c-20.452 4.286-42.002 3.503-62.125-1.902l-2.529-.65c-11.959-3.11-22.631-7.452-33.47-13.35a340 340 0 0 0-4-2v-2l-2.145-.25c-3.547-.932-5.64-2.517-8.543-4.75l-1.575-1.21c-5.144-4.007-9.995-8.317-14.738-12.79l-1.953-1.828c-1.395-1.344-2.73-2.751-4.047-4.172v-2l-1.808-.76c-2.502-1.416-3.593-2.758-5.25-5.092l-1.67-2.332-1.71-2.441-1.696-2.371c-5.932-8.348-10.836-16.58-14.866-26.004l-1.062-2.434c-13.951-33.188-14.458-73.79-.948-107.24 10.15-23.372 24.707-42.849 45.01-58.326q1.594-1.275 3.184-2.555c5.712-4.56 11.44-8.672 17.987-11.982a124 124 0 0 0 5.295-2.895c7.008-4.064 14.009-6.611 21.784-8.818l3.637-1.041c9.47-2.645 18.297-4.465 28.131-4.817"></path>
        <path fill="#91D9CE" d="m4626 433 2.007.454c8.471 1.932 16.19 4.729 23.993 8.546l3.563 1.438c3.874 1.76 7.406 3.865 11.027 6.093a128 128 0 0 0 5.972 3.406c8.959 5.135 16.427 12.518 23.873 19.582a570 570 0 0 0 4.303 4.02c23.96 22.878 36.354 57.06 37.578 89.703.11 5.93-.035 11.835-.316 17.758l-.101 2.379c-1.4 27.252-11.577 52.042-27.899 73.621l-2.07 2.746c-11.401 14.493-25.18 28.22-41.952 36.294a131 131 0 0 0-5.556 2.89C4650 707.512 4639.43 711.065 4628 714l-2.389.642c-31.573 8.294-63.038 2.695-92.611-9.642l-2.508-.945c-8.759-3.707-17.137-9.06-24.492-15.055l-2.61-2.055c-23.057-18.408-39.778-42.128-49.39-69.945l-.779-2.177c-10.96-31.403-7.343-70.985 6.732-100.844 1.874-3.744 3.95-7.357 6.047-10.979l1.422-2.965C4476.934 481.74 4495.33 465.65 4512 454l2.125-1.61c13.514-9.818 29.874-15.267 45.875-19.39l3.691-1.031c19.42-4.605 42.972-3.577 62.309 1.031"></path>
        <path fill="#FDC52E" d="m172 241 2.559.723c5.232 1.603 7.31 4.015 10.441 8.277l2.125 1.75c7.3 8.76 6.02 23.384 5.995 34.044l.003 4.203q.002 5.753-.007 11.507-.005 6.213-.002 12.425 0 10.756-.008 21.513-.011 15.552-.012 31.104-.004 25.233-.019 50.467-.014 24.508-.02 49.017v3.084l-.007 23.88c-.01 39.002-.03 78.004-.048 117.006h159v2l3.375.25c6.651.873 13.236 2.818 18 7.75 7.893 11.157 7.22 23.659 7.092 36.754-.03 3.239-.021 6.476-.008 9.715-.027 28.848-.027 28.848-10.459 39.531-1.925 1.206-3.538 1.869-5.735 2.42-2.353.603-4.622 1.359-6.927 2.122-5.075 1.525-9.663 1.884-14.937 1.846l-2.763.016c-3.028.014-6.055.007-9.082 0l-6.547.02c-5.91.019-11.819.018-17.728.012-4.945-.003-9.89.003-14.835.009-12.341.015-24.683.011-37.025 0-11.347-.011-22.694.005-34.041.03q-15.51.034-31.018.023a5524 5524 0 0 0-18.492.017q-8.704.022-17.41-.008-3.178-.005-6.355.01c-16.22.075-33.156-.079-45.613-11.955-4.394-4.841-7.73-10.443-7.742-17.062L94 680h-2a326173 326173 0 0 1-.111-177.4q-.016-29.565-.043-59.128-.028-30.336-.034-60.672-.004-18.717-.028-37.436-.015-12.836-.011-25.673.004-7.406-.011-14.81-.014-6.786-.004-13.571.002-2.45-.008-4.899c-.05-13.883.306-27.921 9.695-39.138C102.875 246 102.875 246 106 244l1.664-1.07c17.91-10.289 45.467-8.442 64.336-1.93"></path>
        <path fill="#91D9CE" d="M4855.375 444.188c6.024 6.455 7.414 14.288 8.625 22.813l1.582-1.653c17.541-17.97 36.335-29.045 61.918-29.66 32.29.122 59.685 13.473 82.75 35.457 2.315 2.454 4.222 5.12 6.188 7.856 1.541 2.065 1.541 2.065 3.53 3.917 21.92 22.467 29.163 59.476 29.193 89.54l.015 3.616q.018 4.86.024 9.719l.012 6.093q.02 9.566.027 19.13.007 10.985.05 21.968.034 8.535.034 17.069 0 5.077.025 10.156c.017 3.779.015 7.556.008 11.334l.028 3.342c-.053 9.97-1.601 20.364-8.384 28.115-10.233 9.246-23.641 9.561-36.75 9.438l-2.137-.011c-13.845-.104-27.37-.3-38.191-10.177-10.586-12.392-8.205-33.279-8.196-48.475q-.002-5.59-.03-11.179a8519 8519 0 0 1-.077-31.753c-.005-6.5-.03-13-.065-19.5q-.015-3.694-.007-7.39c.007-3.449-.01-6.898-.033-10.348l.025-3.032c-.154-13.33-4.936-23.117-14.351-32.322-12.18-8.598-24.622-10.536-39.188-9.25-11.103 2.04-19.252 7.017-27 15h-2l-.75 1.937c-.694 1.7-1.408 3.392-2.203 5.047l-1.047 2.203-1 2.043c-2.892 8.009-3.292 16.047-3.271 24.486l-.016 3.414q-.015 3.645-.018 7.29-.008 5.776-.04 11.553c-.049 9.562-.08 19.124-.102 28.686q-.025 12.138-.094 24.276-.018 3.822-.018 7.645c0 3.568-.018 7.135-.04 10.703l.014 3.158c-.108 10.925-2.753 20.48-10.415 28.558-7.75 5.39-16.666 7.306-25.98 7.336l-2.227.02q-2.317.015-4.636.015c-2.322.004-4.642.04-6.964.079-11.74.088-23.432-1.332-33.193-8.45-10.498-11.474-9.575-26.969-9.502-41.496q-.005-3.227-.016-6.455c-.014-5.81-.003-11.619.014-17.429.014-6.096.007-12.193.003-18.29q-.002-15.35.034-30.7c.027-11.814.029-23.627.017-35.44q-.014-17.087.01-34.172.008-7.254 0-14.509-.005-8.547.028-17.094.008-3.127 0-6.256c-.058-27.882-.058-27.882 9.412-38.158 16.823-13.182 57.418-12.046 74.375.187"></path>
        <path fill="#91D9CE" d="m3615.625 341.563 2.15-.002c12.69.034 24.663.531 34.975 8.877a74 74 0 0 1 3.25 3.563l2.375 2.687c4.663 9.505 3.898 20.787 3.82 31.14l-.008 4.456a3047 3047 0 0 1-.05 11.6c-.02 3.961-.03 7.924-.04 11.886A8563 8563 0 0 1 3662 439l2.806-.48c10.995-1.79 22.334-1.663 33.444-1.77 1.171-.02 2.343-.042 3.55-.064 10.561-.041 23.517 1.138 31.692 8.693 5.32 6.028 7.116 12.264 8.195 19.996l.38 2.675c2.21 16.68 2.647 38.067-8.005 52.2-5.815 6.312-15.577 8.474-23.943 8.896q-5.278.038-10.557.042l-3.564.037c-11.403.018-22.663-1.07-33.998-2.225q.091 15.584.236 31.166c.044 4.824.084 9.649.11 14.473q.041 6.993.117 13.986.025 2.659.035 5.317c-.065 15.129-.065 15.129 5.314 29.058 5.5 5.03 12.565 4.233 19.563 4.313 11.804.31 24.557 1.22 33.625 9.688 1.512 2.042 1.512 2.042 2.688 4.187l1.199 2.105c3.329 8.095 3.486 16.242 3.484 24.917.004 2.023.04 4.045.078 6.068.036 12.015-1.69 23.832-10.449 32.722-2.753 2.298-5.43 3.783-8.75 5.125l-2.422 1.008c-8.495 2.605-17.53 2.07-26.328 2.055l-2.176-.003c-21.282-.06-41.95-2.824-61.324-12.184l-2.305-1.11c-9.454-4.912-19.845-11.786-25.695-20.89v-3h-2c-14.164-24.556-17.525-50.191-17.293-78.176q.009-3.05.013-6.098c.011-5.272.04-10.544.074-15.816.031-5.411.044-10.822.06-16.233q.048-15.839.146-31.678l-1.817.212-2.413.276-2.38.274c-11.056 1.104-21.832 1.605-31.077-5.324-6.181-5.658-9.962-14.93-10.604-23.17a262 262 0 0 1-.045-4.166l-.02-2.28q-.015-2.388-.015-4.776c-.004-2.38-.04-4.757-.078-7.135-.093-12.545.78-26.743 8.613-37.141 4.946-4.767 11.099-7.026 17.836-7.77 2.691.06 5.321.174 8 .375l2.078.133c4.028.277 7.947.803 11.922 1.493l-.013-2.291q-.06-10.787-.09-21.575-.015-5.542-.048-11.086-.032-5.37-.039-10.738c-.005-2.002-.02-4.004-.037-6.006-.003-26.015-.003-26.015 7.227-35.305 10.343-10.342 24.908-10.443 38.625-10.437"></path>
        <path fill="#91D9CE" d="M4165.65 341.76c2.146-.01 4.291-.04 6.437-.072 13.78-.108 24.017 2.93 34.85 11.687 8.06 10.26 6.208 25.277 6.16 37.578l-.004 4.186q-.007 5.445-.025 10.89-.014 5.58-.02 11.163-.016 10.905-.049 21.808l1.914-.178c23.716-2.194 23.716-2.194 33.524-2.134l2.99.01c10.66.157 21.062 1.142 30.572 6.302v2l1.836.723c2.678 1.58 3.415 2.944 4.79 5.715l1.226 2.37c3.258 9.055 3.521 18.391 3.519 27.925.004 2.067.04 4.132.079 6.199.094 11.201-1.08 23.561-8.622 32.455-9.497 8.381-21.376 8.94-33.39 8.863l-3.498.024c-11.703-.026-23.3-1.153-34.94-2.274q.092 15.804.236 31.608.07 7.34.11 14.68.041 7.09.118 14.18.024 2.697.034 5.395c-.334 16.347-.334 16.347 7.502 30.137 3.32 2.095 5.989 2.251 9.875 2.274l3.489.062q3.59.039 7.18.055c11.765.235 22.292 2.922 31.456 10.61 6.699 7.814 6.507 20.055 6.446 29.787a322 322 0 0 0 .052 6.232c.066 12.292-1.913 23.686-10.498 32.98l-1.32 1.578c-2.308 1.954-4.62 2.63-7.492 3.547l-3.082 1.008c-25.692 7.174-63.53 2.764-87.395-8.715-2.318-1.383-4.509-2.858-6.71-4.418l-3.5-1.812c-5.122-2.889-9.253-7.177-13.5-11.188l-1.715-1.554c-2.567-2.396-3.558-4.051-4.286-7.446l-3-1c-2.077-3.106-3.474-6.596-5-10l-1.515-3.226c-9.175-20.899-9.646-43.736-9.582-66.196l.004-5.867q.007-7.665.025-15.328.014-7.844.02-15.687.016-15.348.048-30.696l-2.628.208-3.489.273-3.44.27c-10.207.74-20.065 1.287-28.544-5.41-12.08-12.518-10.37-31.295-10.18-47.395.203-10.852 1.36-23.69 9.281-31.946 8.07-6.466 15.897-7.562 26-7q3.459.46 6.903 1.016l3.48.556 2.617.428-.02-2.463q-.09-11.56-.135-23.122-.022-5.943-.071-11.884-.048-5.748-.058-11.496a583 583 0 0 0-.033-4.358c-.144-13.342 1.014-26.729 10.442-36.99 10.878-6.384 22.22-6.893 34.526-6.927"></path>
        <path fill="#91D9CE" d="M4365.355 436.705q2.122-.017 4.246-.062c13.047-.273 25.58 1.073 36.336 9.299 6.798 6.784 8.157 15.303 8.21 24.525v2.513l.01 2.708q.016 4.482.02 8.966.008 3.22.02 6.437c.02 7.043.03 14.085.04 21.128l.013 7.285q.03 17.12.042 34.237.015 19.73.076 39.46.044 15.27.049 30.539c.002 6.073.01 12.147.036 18.22q.033 8.58.017 17.158 0 3.136.02 6.271c.178 28.694.178 28.694-9.416 38.963-13.899 11.045-34.789 9.942-51.582 8.421-10.756-1.292-19.33-4.116-26.242-12.757-5.293-8.535-5.401-19.364-5.39-29.11l-.01-2.673c-.009-2.937-.01-5.874-.012-8.81l-.015-6.34q-.019-8.59-.024-17.181l-.011-10.743q-.021-16.817-.027-33.635-.007-19.392-.051-38.784-.032-15.006-.033-30.013 0-8.955-.025-17.912a3745 3745 0 0 1-.01-16.847q0-3.086-.014-6.17c-.064-14.33.098-27.038 10.497-38.048 10.394-6.327 21.377-6.979 33.23-7.045"></path>
        <path fill="#91D9CE" d="m3446.875 436.688 3.895-.049c11.445-.006 23.683 1.448 33.23 8.361 2.418 2.805 4.27 5.734 6 9l1.094 1.903c2.341 5.42 2.052 11.349 2.046 17.142l.01 2.729q.01 4.518.011 9.036l.015 6.486q.019 8.805.024 17.61l.012 11.007q.02 17.225.027 34.451.007 19.872.05 39.744.034 15.37.034 30.74 0 9.174.025 18.35.023 8.634.01 17.266-.002 3.163.013 6.325c.013 2.887.007 5.773-.004 8.66l.025 2.504c-.08 9.452-2.833 20.358-9.58 27.298-11.716 7.29-24.125 8.142-37.687 8.125l-3.725-.003c-11.377-.149-23.488-1.477-32.525-9.185-10.236-11.942-9.308-26.256-9.247-41.187q-.004-3.165-.011-6.332c-.01-5.702 0-11.404.013-17.107.011-5.984.007-11.968.005-17.952q0-15.07.029-30.14c.021-11.596.024-23.19.018-34.785q-.006-16.77.011-33.542.007-7.119.004-14.238-.003-8.393.022-16.784.006-3.069.002-6.138c-.034-29.812-.034-29.812 8.404-40.733 10.719-8.388 24.746-8.594 37.75-8.562"></path>
        <path fill="#FEFEFD" d="M1518.523 513.43c3.863 2.45 7.53 5.037 10.477 8.57v2l1.789.293c5.132 1.641 8.252 7.069 10.855 11.52 1.555 3.024 2.972 6.081 4.356 9.187l1.261 2.512c5.284 11.81 4.117 27.193.047 39.191L1546 590l-1.403 3.547c-4.097 9.176-9.75 16.189-17.597 22.453h-3v2a624 624 0 0 1-5.5 2.875l-3.094 1.617c-11.162 4.942-25.292 5.42-37.121 2.633-2.942-1.175-5.566-2.503-8.285-4.125l-2.915-1.644c-6.04-3.606-12.87-7.865-16.082-14.375-.88-2.02-.88-2.02-2.437-3.32-8.64-9.158-10.008-24.934-9.816-36.786.934-14.49 5.997-28.413 15.5-39.5 17.083-14.753 42.886-22.256 64.273-11.945"></path>
        <path fill="#94D5CB" d="m1529 272 1.926 1.313c3.819 2.841 6.2 6.536 8.699 10.507 1.43 2.334 1.43 2.334 3.5 4.993 4.122 7.007 6.465 15.073 6.875 23.187l.262 2.523c.62 10.07-2.772 20.497-7.262 29.477h-2l-.762 2.2c-4.83 10.925-15.821 17.322-26.187 22.183-7.006 2.619-13.84 2.985-21.238 3.055l-2.772.03c-16.482-.213-27.32-8.035-38.65-19.122a97 97 0 0 0-3.582-3.264c-2.434-2.801-3.647-5.903-4.934-9.332l-.784-2.053A491 491 0 0 1 1440 332l-.828-2.2c-3.604-11.456-1.926-26.412 3.203-37.05 2.004-3.746 4.11-7.32 6.625-10.75l1.195-1.637c19.639-24.969 54.337-25.876 78.805-8.363"></path>
        <path fill="#FDFEFE" d="m4616 527 2.328 1.027c10.084 4.954 19.733 13.608 23.513 24.365 2 6.882 2.59 13.15 2.471 20.295l.01 2.971c-.097 13.237-4.237 23.576-13.15 33.346-4.587 4.473-9.56 7.504-15.234 10.371l-2.002 1.012c-10.835 5.217-23.479 6.69-35.186 3.488A93 93 0 0 1 4574 622l-2.922-1.219c-11.395-5.206-21.292-13.391-26.07-25.242A123 123 0 0 1 4543 589l-1-3c-.26-3.85-.231-7.705-.25-11.562l-.062-3.174c-.066-13.138 4.158-24.552 13.113-34.284C4571 522.393 4595.98 517.341 4616 527"></path>
        <path fill="#FDFEFE" d="m2298 526 2.426.996c11.28 5.07 21.416 13.465 26.387 24.879 2.29 6.785 2.658 13.175 2.687 20.313l.019 3.02c-.217 12.835-3.883 23.979-12.706 33.48-12.62 11.761-27.702 16.913-44.708 16.585-13.104-.612-24.641-8.277-34.03-16.976-11.938-13.218-12.045-28.55-11.322-45.455.49-5.628 2.294-10.021 5.247-14.842l1.059-2.164C2238.78 534.979 2250.99 528.43 2262 524c10.997-2.63 25.633-2.664 36 2"></path>
        <path fill="#91D9CE" d="M3478.5 311.813c.96.48 1.918.962 2.906 1.457 4.488 2.994 6.858 6.7 8.782 11.668l.98 2.465c1.766 5.514 2.002 10.992 2.035 16.742l.017 2.331q.015 2.431.02 4.864c.01 2.455.041 4.91.073 7.366.053 8.019-.025 14.828-3.313 22.294l-1.375 3.25c-1.849 3.13-3.89 5.366-6.625 7.75h-2v2c-8.086 3.083-15.357 4.78-24 5l-2.253.063c-32.808.788-32.808.788-42.485-7.562-9.619-10.31-10.62-23.761-10.578-37.192a468 468 0 0 0-.045-6.318c-.057-11.805.74-23.163 9.361-31.99l1.418-1.458c15.018-12.778 50.638-11.29 67.082-2.73"></path>
        <path fill="#91D9CE" d="M4403.203 314.305c7.545 7.119 10.862 16.234 11.396 26.405.088 3.248.094 6.489.053 9.737-.027 2.485 0 4.965.031 7.45.024 11.198-1.134 22.371-7.996 31.728-13.141 11.614-34.23 10.247-50.687 9.375-9.178-.8-18.212-2.298-25-9-8.945-11-9.203-21.952-9.24-35.616a610 610 0 0 0-.073-6.345c-.088-11.435.498-22.998 8.844-31.62 4.102-3.833 8.059-5.993 13.469-7.419l2.332-.62c16.798-3.567 42.38-4.683 56.871 5.925"></path>
        <path fill="#FDFEFE" d="M2936.625 538.688c8.145 7.585 15.217 18.926 15.648 30.34.414 14.226-2.133 24.748-11.718 35.789-5.634 5.774-10.904 10.29-18.555 13.183l-2.824 1.098c-10.694 3.039-23.105 1.175-33.176-3.097-3.368-2.007-6.163-4.305-9-7l-2.184-2.02c-9.413-9.033-14.695-19.611-15.191-32.73.242-12.784 6.338-25.313 15.375-34.25 6.48-6.15 12.18-9.462 21-11l2.191-.391c14.06-2.091 27.478.89 38.434 10.078"></path>
        <path fill="#FDFEFE" d="M3931.75 537.938c2.734 2.471 5.14 5.025 7.25 8.063v2h2q1.199 2.275 2.375 4.562l1.336 2.566c4.409 9.82 5.412 22.428 2.262 32.836-3.193 8.005-7.804 14.99-13.973 21.035h-2v2c-8.873 7.664-19.465 9.893-30.965 9.38-10.71-.82-19.23-4.027-27.035-11.38l-2.336-1.996c-6.871-6.22-12.936-15.506-13.857-24.99-.493-13.845.489-24.589 9.193-36.014l2.063-2.875c15.709-18.263 45.145-20.475 63.687-5.187"></path>
        <path fill="#FDFEFE" d="m3251 534 2.48 1.246c9.83 5.701 16.269 16.071 19.52 26.754l.578 1.805c2.613 13.596-.307 25.389-7.86 36.75L3264 603l-1.594 2.32L3261 607h-2v2c-2.362 2.959-5.343 4.388-8.687 6.063l-3.012 1.535c-11.167 4.744-25.59 5.793-36.988 1.277-9.758-4.824-17.17-11.274-22.313-20.875l-1.625-2.437c-5.07-9.449-4.74-22.6-2.723-32.891 2.893-8.69 8.496-16.636 15.348-22.672l1.887-1.746c13.522-11.677 34.84-11.176 50.113-3.254"></path>
        <path fill="#F8CE5D" d="m118 240-1 4-12 2-1 4c-1.34 1.746-1.34 1.746-2.937 3.438-8.967 9.495-6.209 25.994-6.19 38.21l-.005 4.951q-.005 6.754.001 13.507.003 7.303-.004 14.606-.005 14.288 0 28.575.003 11.618.001 23.235v3.346l-.001 6.73q-.004 31.523.006 63.048.006 27.019-.001 54.038a156136 156136 0 0 0-.004 69.526v3.333q.002 11.595-.002 23.19-.005 14.143.003 28.286.005 7.209 0 14.418-.004 6.612.004 13.224.001 2.379-.002 4.758c-.014 9.906.343 19.703 1.131 29.581-2-2-2-2-2.195-3.945L94 680h-2a326173 326173 0 0 1-.111-177.4q-.016-29.565-.043-59.128-.028-30.336-.034-60.672-.004-18.717-.028-37.436-.015-12.836-.011-25.673.004-7.406-.011-14.81-.014-6.786-.004-13.571.002-2.45-.008-4.899c-.05-13.883.306-27.921 9.695-39.138 4.66-4.15 10.331-7.273 16.555-7.273"></path>
        <path fill="#F0C644" d="M745 264c1.193 3.625.943 6.787.625 10.563l-.273 3.44C745 281 745 281 744 284c-.307 3.385-.509 6.771-.719 10.164C743 297 743 297 742 298a191 191 0 0 0-.281 7.613l-.056 2.321q-.087 3.69-.163 7.378a3296 3296 0 0 1-.219 9.676l-.04 2.248c-.13 5.371-.13 5.371-.744 7.541-.708 3.166-.628 6.2-.633 9.442l-.008 2.218q-.009 3.7-.007 7.397l-.013 5.341q-.016 7.354-.022 14.71-.01 7.925-.029 15.85-.027 13.74-.045 27.479a64652 64652 0 0 1-.07 39.752q-.064 32.26-.118 64.522l-.006 3.902-.105 62.626q-.054 32.133-.119 64.266-.039 19.829-.067 39.657-.018 13.585-.047 27.17-.016 7.842-.025 15.684-.006 7.178-.026 14.355a2562 2562 0 0 0-.006 5.196q-.001 3.53-.015 7.06l-.007 3.961c-.13 3.64-.546 7.045-1.129 10.635h-1a662236 662236 0 0 1-.055-175.757v-3.741q-.008-29.878-.022-59.756-.014-30.72-.017-61.441-.002-18.915-.014-37.828-.007-13.018-.006-26.038.002-7.48-.005-14.96c-.02-18.729.049-37.445.568-56.168l.06-2.2c.697-24.95 2.604-49.613 7.491-74.111"></path>
        <path fill="#FEF8CA" d="M1040 288c2.476 3.88 2.65 8.114 3.056 12.582l.25 2.656c1.045 11.797 1.425 23.624 1.798 35.457l.126 3.882c1.023 31.638 1.087 63.277 1.107 94.929.006 8.392.025 16.783.045 25.174a52965 52965 0 0 1 .09 47.57l.06 40.7.004 2.723q.034 22.482.088 44.964.033 13.779.042 27.558.006 9.39.032 18.781.016 5.404.013 10.808c-.003 3.908.01 7.816.024 11.724l-.01 3.42c.052 8.78 1.23 16.807 4.275 25.072h-2c-3.239-7.634-4.294-13.927-4.265-22.156l-.013-3.059c-.013-3.38-.01-6.76-.01-10.139q-.008-3.645-.02-7.29-.022-7.871-.028-15.744c-.005-7.69-.024-15.381-.046-23.072q-.053-18.922-.086-37.843l-.004-2.288-.02-11.431c-.043-24.91-.09-49.821-.164-74.732l-.007-2.164c-.112-38.225-.37-76.441-1.18-114.659q-.091-4.325-.18-8.651c-.42-20.177-1.166-40.28-2.578-60.414-.329-4.803-.489-9.544-.399-14.358"></path>
        <path fill="#FAD165" d="m369 704 2 1c-3.788 2.688-7.236 3.644-11.719 4.473-2.306.442-2.306.442-4.359 1.544-4.028 1.355-7.737 1.26-11.96 1.237l-2.763.01c-3.057.007-6.114.001-9.17-.005q-3.287.003-6.575.01c-5.954.01-11.909.006-17.864 0-6.233-.005-12.466 0-18.7.002q-16.718.005-33.434-.012-15.137-.012-30.273.002-17.591.016-35.182.009-9.306-.007-18.613.003-8.757.007-17.514-.01a1944 1944 0 0 0-6.417.002c-2.928.006-5.856-.001-8.784-.011l-2.543.013c-5.9-.038-11.387-.935-17.13-2.267v-1l3.533.003a199103 199103 0 0 0 93.33.052h2.058q16.48.008 32.96.022 16.919.014 33.839.017 9.498 0 18.998.012 8.946.01 17.891.007 3.28 0 6.557.006 4.488.006 8.976.001l2.6.01c9.753.639 9.753.639 18.258-2.13l3.25-.437c3.662-.403 3.662-.403 6.563-1.688z"></path>
        <path fill="#F5C440" d="M189 256c3.046 4.57 3.125 8.635 3.123 14.034l.006 3.693-.009 4.048.003 4.307q.002 5.917-.007 11.835-.005 6.381-.002 12.762 0 11.056-.008 22.113-.011 15.985-.012 31.97-.004 25.935-.019 51.87-.014 25.194-.02 50.388v3.137l-.005 15.58q-.016 64.63-.05 129.263h-1V267h-3z"></path>
        <path fill="#A6D5CD" d="M2459 326h1q.039 2.718.063 5.438l.035 3.058C2460 337 2460 337 2459 338a104 104 0 0 0-.139 5.527l-.016 3.658-.003 4.07-.015 4.285q-.02 5.914-.028 11.828-.013 6.368-.034 12.734-.032 11.04-.056 22.082-.035 15.963-.08 31.926-.071 25.896-.132 51.793a172115 172115 0 0 1-.174 69.005q-.17 64.546-.323 129.092h-1a237126 237126 0 0 1-.111-151.278q-.015-25.21-.043-50.419-.028-25.869-.034-51.739-.004-15.96-.028-31.922-.015-10.947-.011-21.894.004-6.315-.011-12.63-.014-5.786-.004-11.573.002-2.088-.008-4.176c-.033-7.706.34-14.883 2.25-22.369"></path>
        <path fill="#FFFEDF" d="M364 709c-5.731 3.9-9.837 4.571-16.687 4.481l-2.902.01c-3.198.007-6.396-.015-9.594-.037q-3.445-.001-6.89.002c-6.229.001-12.457-.022-18.686-.05-6.512-.025-13.023-.028-19.535-.033a14507 14507 0 0 1-32.782-.071q-16.88-.056-33.76-.082l-2.104-.003-10.447-.016c-28.87-.041-57.742-.112-86.613-.201v-2l3.533.008a66368 66368 0 0 0 93.33.157l2.058.002c10.986.013 21.973.037 32.96.064q16.919.043 33.839.051a6685 6685 0 0 1 18.998.035q8.946.03 17.891.022 3.28.001 6.557.019c2.992.015 5.984.01 8.976.003l2.6.026c5.48-.04 10.047-1.022 15.222-2.841C362 708 362 708 364 709"></path>
        <path fill="#FEF4C6" d="m836 619 4 2-2 1c-.062 25.21-.033 50.416.254 75.625l.037 3.296q.17 14.985.357 29.97.104 8.352.195 16.704.036 3.138.078 6.277.056 4.307.1 8.612l.04 2.59A185 185 0 0 1 839 771l-1 1a83 83 0 0 0-.465 4.586l-.236 2.82a1784 1784 0 0 0-.461 5.914l-.24 2.828-.203 2.6C836 793 836 793 834 796q.215-4.656.438-9.312l.119-2.612c.21-4.351.493-8.669.956-13 .635-6.909.62-13.796.6-20.727l.001-4.32q-.001-5.812-.013-11.626c-.006-4.063-.006-8.125-.008-12.188q-.005-11.516-.021-23.033-.015-13.121-.022-26.242-.016-26.97-.05-53.94"></path>
        <path fill="#F4CA5D" d="M836 617h4v3h2v3l4 2-1 2a89.5 89.5 0 0 1-9-8l.038 3.174c1.06 88.853 1.06 88.853 1.14 117.527q.009 3.109.03 6.218c.09 14.128-.766 28.026-2.208 42.081h-1q.16-33.222.34-66.444.083-15.424.157-30.849.065-13.438.14-26.877.04-7.12.072-14.241.03-6.694.071-13.388.015-2.463.023-4.928.014-3.35.039-6.699l.02-3.796C835 618 835 618 836 617"></path>
        <path fill="#FEFAC6" d="m1637 549 2 1c1.239 22.455 1.155 44.915 1.13 67.396q-.006 8.034.004 16.067.004 6.3 0 12.6l.002 5.918c.013 13.369-.389 26.67-1.136 40.019l-2 1-1.5 2.5c-1.5 2.5-1.5 2.5-3.5 3.5l.813-1.562L1634 695c.505-1.002 1.01-2.005 1.532-3.037 1.919-4.55 2.032-8.915 2.148-13.803l.1-3.089c.463-16.61.367-33.236.347-49.851q-.003-5.532.007-11.064c.023-21.74-.236-43.433-1.134-65.156"></path>
        <path fill="#E4FEFA" d="M2547 327c3.07 3.07 2.935 6.536 3.123 10.753l-.003 2.866.004 3.314-.01 3.59v3.815q-.001 5.16-.013 10.32-.007 5.398-.008 10.798-.005 10.215-.021 20.43a29232 29232 0 0 0-.022 23.268q-.016 23.922-.05 47.846l3 1-2 3h-2l-.013-2.036q-.155-24.565-.326-49.13-.084-11.88-.158-23.759-.065-10.357-.14-20.716-.04-5.481-.072-10.962-.036-6.129-.086-12.258l-.017-3.642c-.055-6.244-.368-12.306-1.188-18.497"></path>
        <path fill="#DFFEF2" d="M3181 346h1l1 110c3.177-.757 3.177-.757 5-3.5 2-2.5 2-2.5 5-3.5-1.44 3.362-3.248 5.592-6 8h-2l-2 4h-2z"></path>
        <path fill="#FEF6CB" d="M1368 724c-2.709 1.354-5.01 1.065-8 1v2c-17.789 2.97-38.336 4.471-56 0l-1-2 3.016.219c18.587 1.27 36.934 1.44 55.343-1.813 2.614-.402 4.168-.262 6.641.594"></path>
        <path fill="#FEF6CE" d="M577 708c1.338 3.883.931 7.668.625 11.688l-.133 2.087c-.36 5.093-.36 5.093-1.492 6.225a169 169 0 0 0-.125 7.625l-.012 2.121.004 2.106.004 1.9c.104 2.427.104 2.427.631 5.513.52 3.905.625 7.71.596 11.637l-.005 2.19a2159 2159 0 0 1-.03 6.846q-.009 2.336-.014 4.673-.017 5.695-.049 11.389h-1c-1.104-17.196-2.193-34.388-2.25-51.625l-.027-3.364c.025-6.977.092-14.64 3.277-21.011"></path>
        <path fill="#FEF9CE" d="M742 274h1a1544 1544 0 0 1-.375 8c-.03.724-.062 1.449-.094 2.195-.26 5.124-.82 10.157-1.5 15.243-1.209 9.162-1.698 18.336-2.156 27.562l-.262 4.984q-.315 6.007-.613 12.016h-1q-.037-6.479-.055-12.958-.008-2.194-.02-4.39c-.05-8.338.085-16.557.877-24.868.197-2.773.15-5.447.01-8.221-.111-6.85 2.08-13.12 4.188-19.563"></path>
        <path fill="#F5CC55" d="M1567 686h2v2h2a4248 4248 0 0 1 2.246 5.957c.616 1.67 1.191 3.355 1.754 5.043h2l1 3 3 1 1.336 1.492c2.294 2.079 4.255 2.193 7.289 2.633 5.292.792 5.292.792 6.375 1.875 1.562.087 3.127.107 4.691.098l2.862-.01 3.01-.025 3.021-.014q3.708-.018 7.416-.049v1c-11.97 3.023-25.81 2.095-37-3v-2l-1.75-.687c-3.944-2.301-6.611-6.08-8.25-10.313v-4h-2v-2l-2-1z"></path>
        <path fill="#FDF0BF" d="M636 867h42v1c-6.935 1.803-13.287 2.307-20.437 2.25l-2.948.023c-6.426-.017-12.369-.77-18.615-2.273z"></path>
        <path fill="#F2C951" d="m1292 722 20 1v2h40v1c-20.024 2.28-40.331 1.441-60-3z"></path>
        <path fill="#F1C74F" d="M836 617h4v3h2v3l4 2-1 2c-3.252-2.53-6.067-5.067-9-8v66h-1q-.034-13.078-.052-26.155-.007-6.072-.023-12.144-.016-5.855-.02-11.71-.003-2.238-.01-4.477a1696 1696 0 0 1-.009-6.25l-.006-3.6C835 618 835 618 836 617"></path>
        <path fill="#FDF2C2" d="M611 964c4.47-.139 8.429.172 12.839 1.058 11.764 2.352 23.335 2.286 35.286 2.13q3.057-.024 6.113-.042c4.921-.032 9.841-.084 14.762-.146-2.94 1.679-5.038 2.25-8.414 2.243l-2.62.01-2.806-.023h-2.906q-3.04-.006-6.08-.024c-3.096-.018-6.193-.02-9.29-.02l-5.911-.018-2.8-.003c-4.2-.031-8.069-.176-12.173-1.165a127 127 0 0 0-5.812-.062l-2.958.027L616 968l-1-2c-2.017-1.134-2.017-1.134-4-2"></path>
        <path fill="#F5CF5E" d="M1128 707c-10.72 4.937-21.146 5.487-32.75 5.438l-2.182-.001c-13.212-.043-13.212-.043-17.068-2.437l3.953.035c8.498.052 16.884.045 25.348-.812 4.563-.377 9.124-.304 13.699-.223v-2c3.434-.859 5.617-.976 9 0"></path>
        <path fill="#E8FDFC" d="M4212 365h1c.988 8.013 1.194 15.964 1.281 24.031l.085 6.017q.085 6.291.16 12.584.063 5.222.137 10.444.056 3.903.097 7.806l.05 3.542.039 3.125c-.009 2.457-.009 2.457 1.151 4.451 2.017 1.134 2.017 1.134 4 2h-7z"></path>
        <path fill="#A4DAD0" d="M3532 443h2c-1.15 2.494-2.423 4.609-4 6.875-7.13 11.142-6.347 26.124-6.625 38.938l-.117 4.447q-.142 5.37-.258 10.74h-1q-.149-7.25-.22-14.502a526 526 0 0 0-.082-4.91c-.295-14.132.364-28.281 8.935-40.182z"></path>
        <path fill="#F6CC5A" d="M365 463c1 2 1 2 .25 4.438-1.191 2.442-2.135 3.888-4.25 5.562h-2l1 5h-2c-1.628 4.356-2.341 8.24-2.625 12.875l-.227 3.492L355 497h-1c-2.216-8.865-1.13-16.604 3.43-24.465 2.277-3.495 4.533-6.66 7.57-9.535"></path>
        <path fill="#F5CF63" d="M745 264c1.036 3.698.948 6.72.625 10.563l-.273 3.44C745 281 745 281 744 284c-.307 3.385-.509 6.771-.719 10.164C743 297 743 297 742 298a93 93 0 0 0-.535 4.91l-.264 2.998-.264 3.154-.275 3.167q-.337 3.885-.662 7.771h-1c-.312-9.394.526-18.533 1.6-27.847.276-2.412.54-4.825.802-7.239l.528-4.68.234-2.147c.566-4.827 1.579-9.391 2.836-14.087"></path>
        <path fill="#F7C84B" d="M740 312h1c.03 3.417.047 6.833.063 10.25l.025 2.934.01 2.832.016 2.602c-.11 2.288-.554 4.171-1.114 6.382a133 133 0 0 0-.316 5.422l-.127 3.105-.12 3.223-.13 3.27q-.159 3.99-.307 7.98h-1q-.074-7.36-.11-14.722-.015-2.496-.04-4.992c-.1-9.636.064-18.817 2.15-28.286"></path>
        <path fill="#FCF0BF" d="M1544 542c5.187 7.78 6.373 15.242 6.375 24.438l.004 2.656c-.077 4.528-.277 6.703-2.379 10.906l-1-28h-3z"></path>
        <path fill="#E8FCFA" d="M2093 421c1 3 1 3 .375 4.875-1.788 2.764-4.022 4.828-6.375 7.125l-2.125 2.813L2083 438h-3v2c-2.312 2.188-2.312 2.188-5 4l-3-1c2.546-2.621 5.022-5.018 7.875-7.312 5.11-4.173 9.226-9.4 13.125-14.688"></path>
        <path fill="#FEF8CF" d="m1308 625 3.781.492c5.58.618 11.11.655 16.719.633l2.973.012A136 136 0 0 0 1349 625l-3 1v2c-12.372 2.499-26.046 2.082-38-2z"></path>
        <path fill="#F0CB59" d="M376 626c4.469 6.703 4.275 13.378 4.195 21.184l-.008 3.198c-.011 3.352-.036 6.704-.062 10.056q-.016 3.42-.027 6.841-.034 8.36-.098 16.721h-1l-.031-1.664a9027 9027 0 0 0-.341-17.08q-.065-3.19-.125-6.382-.088-4.575-.187-9.151l-.05-2.901-.06-2.67-.048-2.361c.033-1.814.033-1.814-1.158-2.791a168 168 0 0 1-.562-6.562l-.254-3.63z"></path>
        <path fill="#FEFAD3" d="M1442 547h1c.625 2.813.625 2.813 1 6l-2 3c-.292 2.599-.292 2.599-.23 5.508l.005 3.238.037 3.379.002 3.402c-.46 5.093-.46 5.093 1.186 9.473q.062 3.5 0 7c-4.67-4.67-4.176-13.019-4.312-19.25.084-7.564 1.419-14.437 3.312-21.75"></path>
        <path fill="#FEEFB4" d="m1511.125 422.875 3.082-.04c4.076.24 7.117 1.435 10.793 3.165v1l-3.898-.48c-4.914-.545-9.79-.737-14.73-.836l-2.653-.063q-4.14-.096-8.282-.183l-5.658-.131q-6.89-.16-13.779-.307v-1q6.594-.255 13.188-.5l3.716-.145c6.073-.224 12.145-.408 18.221-.48"></path>
        <path fill="#F7CB58" d="M1440 550c.974 2.705.956 4.3.535 7.195-1.336 9.5-.786 19.314.465 28.805l-2-1a109 109 0 0 1-1-7h-1c-.088-3.354-.14-6.708-.187-10.062l-.077-2.858c-.06-5.846.523-9.893 3.264-15.08"></path>
        <path fill="#F5D05F" d="m432 441 1 2h-4v-2c-10.527-.3-20.587.588-31 2 7.827-7.827 24.812-6.507 34-2"></path>
        <path fill="#F2C852" d="M622 965h18v2h32v1q-7.305.074-14.612.11-2.475.015-4.951.04c-10.365.108-20.204-.303-30.437-2.15z"></path>
        <path fill="#A0D4C9" d="m4501 463 2 1a132 132 0 0 1-9.062 8.5c-3.028 2.624-5.553 5.263-7.938 8.5l-4 5-4-1q4.426-4.464 8.862-8.917 1.509-1.517 3.015-3.035 2.164-2.182 4.334-4.357l2.634-2.65C4499 464 4499 464 4501 463"></path>
        <path fill="#FDF8CE" d="M845 268c.915 3.011 1.024 5.323.625 8.438-.1.788-.199 1.577-.3 2.39a85 85 0 0 1-.888 4.86c-.543 2.442-.543 2.442-.375 5.5C844 292 844 292 842 294c-.68 2.427-.68 2.427-1.125 5.125l-.508 2.758L840 304h-1c-.355-7.364.99-14.172 2.438-21.375l.697-3.598c1.717-8.732 1.717-8.732 2.865-11.027"></path>
        <path fill="#FEF7D2" d="M1128 707v2h-4v2c-5.415 1.812-10.09 2.271-15.777 2.195l-2.459-.008c-2.567-.011-5.134-.036-7.701-.062q-2.627-.016-5.252-.027-6.405-.035-12.811-.098v-1l2.715-.028q5.095-.069 10.188-.18 2.184-.041 4.369-.063c9.25-.096 17.207-1.008 26.063-3.88C1126 707 1126 707 1128 707"></path>
        <path fill="#F8D268" d="M1359 514c1.357 2.713.412 4.142-.453 6.914-.953 3.634-1.225 7.352-1.547 11.086h-2l.063 3.438C1355 539 1355 539 1354 540c-.282 2.287-.448 4.574-.621 6.871C1353 549 1353 549 1351 551c.032-9.489.939-29.939 8-37"></path>
        <path fill="#F6CB5B" d="M1351 584c2.136 3.204 2.231 4.02 2.125 7.688l-.055 2.449L1353 596h2q1.017 3.995 2 8l.836 3.32.851 3.492.825 3.333C1360 617 1360 617 1359 620l-4-12-1.062-2.988c-.994-3.191-1.571-6.27-2.063-9.574l-.508-3.317A56 56 0 0 1 1351 584"></path>
        <path fill="#F1CF4C" d="m861 478 1 3c-2.312 3.188-2.312 3.188-5 6h-2l-2 4h-2l-.687 1.938C849 495 849 495 846.375 495.75L844 496c1.137-3.41 2.153-4.2 4.875-6.437 2.231-1.84 4.041-3.449 5.758-5.786L856 482h2v-2z"></path>
        <path fill="#F8CD5E" d="M1518 621v2c-6.862 3.639-12.904 5.48-20.625 5.438l-2.117-.008c-4.975-.147-4.975-.147-7.258-2.43l3.148-.113c9.027-.399 18.504-4.887 26.852-4.887"></path>
        <path fill="#F3C947" d="M1401 458c0 3.547-.578 4.018-2.875 6.563l-1.617 1.816A139 139 0 0 1 1393 470l-1.375 1.563C1390 473 1390 473 1388 473.313c-2.381.572-2.381.572-3.75 3.75L1383 480l-3-1 2-3h2l.172-1.723c1.2-3.302 3.319-4.586 6.078-6.714 3.848-2.99 7.362-6.057 10.75-9.563"></path>
        <path fill="#A4D7CD" d="M3468 397v1c-7.417.844-14.792 1.108-22.25 1.125l-2.542.014c-5.157-.013-10.104-.398-15.208-1.139v-1c13.436-.834 26.576-1.077 40 0"></path>
        <path fill="#E7FDFC" d="M2475 710q2 .217 4 .438c.742.08 1.485.162 2.25.246 2.058.236 4.11.528 6.156.847 6.333.797 12.723.574 19.094.532l3.938-.014q4.78-.018 9.562-.049v2q-5.892.292-11.786.537c-1.98.086-3.96.184-5.939.283-9.667.392-18.295-.024-27.275-3.82z"></path>
        <path fill="#F5CB4E" d="m877 656 9 3 .063 2.313c.734 3.1.734 3.1 4.5 4.5L894 667l-1 5-2-1v-2l-1.625-.687c-5.647-3.121-9.094-6.887-12.375-12.313"></path>
        <path fill="#F6CD56" d="M596 476h1c-.386 5.793-.654 8.027-5 12-3.029 5.018-5.036 10.5-7 16h-2c1.167-5.64 2.58-9.273 6-14 2.794-4.5 5-9.1 7-14"></path>
        <path fill="#F5D061" d="M833 792h1v12h-2l.125 3.313c.02 5.349-1.05 10.465-2.125 15.687h-1c-.6-10.275.736-21.209 4-31"></path>
        <path fill="#A2D5CB" d="m4700 668 3 1a1343 1343 0 0 1-7.562 7.75l-2.135 2.21c-4.165 4.223-7.99 7.387-13.303 10.04v-2h2v-2q2.106-1.337 4.219-2.668c2.788-2.085 4.869-4.705 7.101-7.36 2.103-2.47 4.353-4.715 6.68-6.972"></path>
        <path fill="#F5CE5C" d="M987 472c4.037 5.382 3.77 9.46 3 16-1.461 4.505-3.564 7.761-7 11l1-7h3z"></path>
        <path fill="#F4CA54" d="M692 470c3.544 3.072 4.81 5.485 6 10a99 99 0 0 1 .25 8l.023 2.078c-.016 4.347-.683 7.883-2.273 11.922h-1l.324-3.402c.7-8.313 1-14.804-2.324-22.598-.384-1.99-.742-3.989-1-6"></path>
        <path fill="#F6CF5E" d="m836 127 2 1-3 6-5-1-1 3-3 1-1 2-4 2-1 2-4-1 1.426-.988 1.886-1.325 1.864-1.3c1.824-1.317 1.824-1.317 3.23-2.825 2.082-2.04 4.382-3.598 6.782-5.25l2.73-1.886z"></path>
        <path fill="#F8CC5F" d="m721 832 2 4-2.437 2.25c-2.333 2.503-3.198 3.468-3.563 6.75l-4 1v3l-5 2v4l-4-1h2l.188-1.875L707 850l5-2q.519-1.996 1-4c1.34-2 1.34-2 2.938-4 2.046-2.574 3.68-5.01 5.062-8"></path>
        <path fill="#FFF8D7" d="M466 496h3v5h2a794 794 0 0 1 3 5.313l1.688 2.988C477 512 477 512 477 515h2l1 6c-2.357-2.155-3.79-4.197-5.187-7.062l-1.043-2.098C473 510 473 510 473 508h-2q-1.256-2.434-2.5-4.875l-1.406-2.742C466 498 466 498 466 496"></path>
        <path fill="#FFFCE7" d="M353 477h2l-.5 3c-1.009 7.266-.369 12.992 1.5 20v4l-3-1c-1.902-9.239-3.03-16.909 0-26"></path>
        <path fill="#F6D464" d="M482 822c2 3 2 3 2 6h3v7h2l.684 6.152c.135 1.86.135 1.86 1.316 2.848.04 1.666.043 3.334 0 5-2.722-2.722-3.106-5.295-4-9v-4h-2a647 647 0 0 1-1.5-4.75l-.844-2.672C482 826 482 826 482 822"></path>
        <path fill="#FDF2BA" d="m1552 700-2 4-2.75-.062c-2.677.051-4.72.284-7.25 1.062v2l-12 1c2.26-2.26 3.464-2.558 6.5-3.375 4.663-1.315 9.032-3.016 13.469-4.953C1550 699 1550 699 1552 700"></path>
        <path fill="#ADE0D5" d="M2773 534c1.357 2.714.855 4.407.477 7.41l-.407 3.248-.445 3.404-.422 3.417c-1.07 8.389-1.07 8.389-2.203 9.521a236 236 0 0 0-1 7h-1c.335-8.579.996-16.976 2.5-25.437l.396-2.24c.966-5.185.966-5.185 2.104-6.323"></path>
        <path fill="#F8CD51" d="m892 448 2 1c-3 6-3 6-5 6.813-2.285 1.047-2.285 1.047-2.75 3.812L886 462l-3-1c-2.143.39-2.143.39-4 1 2.134-4.268 3.643-5.324 8-7 1.167-1.917 1.167-1.917 2-4 1.625-1.75 1.625-1.75 3-3"></path>
        <path fill="#F3FFFF" d="M1950 620c1.869.22 1.869.22 4.21.836 6.773 1.518 13.498 1.618 20.415 1.789l3.91.117q4.733.141 9.465.258v1q-6.375.074-12.75.11-2.163.015-4.326.04c-7.889.094-15.265.024-22.924-2.15z"></path>
        <path fill="#A8D9D1" d="m2924 529-2 2c-1.82-.277-1.82-.277-4.125-.937-4.849-1.103-9.208-1.095-14.125-.75l-2.04.142c-3.945.316-7.817.838-11.71 1.545l-1-2c25.701-4.498 25.701-4.498 35 0"></path>
        <path fill="#A2D6CB" d="m2804 481 2 3a923 923 0 0 1-4.375 5l-2.46 2.813c-.715.721-1.43 1.443-2.165 2.187h-2l-.937 1.875L2792 500l-2-1c4.437-6.228 8.918-12.283 14-18"></path>
        <path fill="#F6C441" d="M1379 480c1 3 1 3 .145 5.121-4.673 8.125-4.673 8.125-8.145 10.879h-2v-2h2l.277-2.2c.843-3.267 2.155-5.017 4.285-7.613l1.942-2.394z"></path>
        <path fill="#EBFDFC" d="m1833 377 3 1a517 517 0 0 1-3.375 3.5l-1.898 1.969C1829 385 1829 385 1827 385v2c-1.47 1.274-2.945 2.544-4.465 3.758-1.626 1.315-3.097 2.724-4.535 4.242.188-2.812.188-2.812 1-6 2.408-1.852 3.927-3 7-3v-2h2v-3h3z"></path>
        <path fill="#F5C955" d="M847 256h2c-.433 3.462-1.14 6.528-2.437 9.75-1.83 4.628-2.712 9.362-3.563 14.25h-1c-.264-6.865.742-13.258 2-20h3z"></path>
        <path fill="#FEF9D9" d="m753 233 1 4h-2l-.375 3.75c-.23 2.304-.48 3.974-1.562 6.031-1.524 3.182-2.05 6.525-2.688 9.969l-.406 2.113q-.491 2.568-.969 5.137h-1c-.511-6.52.94-11.61 2.984-17.793.893-2.817 1.568-5.562 2.141-8.457L751 234z"></path>
        <path fill="#ACDBD0" d="M3403 326h1q.039 2.718.063 5.438l.035 3.058C3404 337 3404 337 3403 338a158 158 0 0 0-.316 6.66l-.063 2.014q-.097 3.195-.184 6.389l-.13 4.322q-.161 5.307-.307 10.615h-1q-.075-6.56-.11-13.123-.015-2.225-.04-4.45c-.096-8.33-.042-16.315 2.15-24.427"></path>
        <path fill="#FEF3CC" d="m770 925 2 1c-3.333 4.721-7.383 7.663-12 11a505 505 0 0 0-5 4l-3-2c3.691-2.81 7.365-5.585 11.25-8.125 2.581-1.76 4.63-3.592 6.75-5.875"></path>
        <path fill="#FEF0BC" d="M1565 688h3v2h2l-1 4v-2h-2v-2h-2l-.125 1.813c-1.314 3.285-3.762 3.76-6.875 5.187l-1 2h-5c1.38-2.761 3.528-3.42 6.156-4.848 2.137-1.24 2.137-1.24 4.594-3.902z"></path>
        <path fill="#FEF6CA" d="M1009 648c2.365 3.548 2.27 5.173 2.25 9.375l.016 3.398c-.26 3.157-.923 5.38-2.266 8.227h-2l-1 5h-2q.684-2.094 1.375-4.187l.773-2.356c.852-2.457.852-2.457 1.946-4.863 1.085-3.105 1.103-5.626 1.031-8.907l-.055-3.238z"></path>
        <path fill="#A2D7CD" d="M3725 644c2.954 5.316 3.122 10.258 3.098 16.27l-.005 2.063c-.005 2.16-.018 4.32-.03 6.48q-.008 2.205-.014 4.412A4023 4023 0 0 1 3728 684h-1l-1-34h-2z"></path>
        <path fill="#FDEDB6" d="M1638 664h1v28l-2 1-1.5 2.5c-1.5 2.5-1.5 2.5-3.5 3.5l.813-1.562L1634 695l1.531-2.875c2.257-5.292 2.039-10.894 2.157-16.562l.103-3.374q.122-4.095.209-8.189"></path>
        <path fill="#9FD6CC" d="M4608 624c-6.682 3.574-14.893 5.033-22.395 3.516L4584 627v-2l3.36-.184 4.39-.254 2.21-.119c4.11-.226 4.11-.226 8.143-.99 2.277-.544 3.694-.161 5.897.547"></path>
        <path fill="#FDF3C7" d="m972 511 1 2a577 577 0 0 1-6.125 6.063c-2.044 1.995-2.044 1.995-3.875 4.937-2.624.985-5.245 1.422-8 2 3.41-3.51 6.94-6.682 10.75-9.75 3.22-2.517 3.22-2.517 6.25-5.25"></path>
        <path fill="#FEF8CC" d="M1610 482c3.349 1.116 3.716 1.675 5.563 4.5 1.753 2.755 1.753 2.755 4.437 4.5a196 196 0 0 1 3 7l1.25 2.188c.959 2.316.433 3.457-.25 5.812l-.988-2.047-1.324-2.703-1.301-2.672c-1.292-2.401-2.71-4.436-4.387-6.578-1.71-2.697-2.987-4.962-4-8h-2z"></path>
        <path fill="#FEFBD9" d="M866 229c.676 1.777.676 1.777 1 4-1.145 1.816-1.145 1.816-2.812 3.563-1.988 2.12-3.56 3.994-5.188 6.437h-2l-1 4h-2c1.875-4.75 1.875-4.75 3-7h2l.688-2.125c1.629-3.568 3.718-5.94 6.312-8.875"></path>
        <path fill="#F9C746" d="M1116 204c3.474 1.737 4.58 5.55 6 9 1.131 3.637 2.102 7.3 3 11h-2v-3l-3 1 1-6h-2v-4h-2z"></path>
        <path fill="#F0CE58" d="M1073 150c4.548 2.405 7.774 5.537 11.313 9.188l1.666 1.693q2.016 2.053 4.021 4.119l-3 1c-2.705-1.522-3.926-2.873-5.5-5.562-1.678-2.727-2.69-3.121-5.5-4.438-3-3.429-3-3.429-3-6"></path>
        <path fill="#FCFBE5" d="M990 476c1.846 3.15 2.272 5.489 2.25 9.125l.016 2.633C992 490 992 490 990 492l-.875 2.5c-1.125 2.5-1.125 2.5-3.25 3.813L984 499l.813-1.562L986 495l1.563-3c2.192-5.06 2.178-10.561 2.437-16"></path>
        <path fill="#E5FAF8" d="M1883 465c1 3 1 3 .328 4.727l-1.078 1.898c-2.012 3.733-3.298 7.416-4.441 11.492C1877 485 1877 485 1874 487c.544-5.474 2.554-9.583 5.063-14.375l1.142-2.23A918 918 0 0 1 1883 465"></path>
        <path fill="#E6FCF9" d="M2624 436c1.704.226 3.413.409 5.125.563l2.758.253L2634 437v2l-2.36-.184c-10.538-.789-21.084-1.317-31.64-1.816v-1c3.625-.196 7.25-.38 10.875-.562l3.129-.17 2.988-.147 2.761-.143C2622 435 2622 435 2624 436"></path>
        <path fill="#F3CD56" d="m761 216 2 4-3 2c-.979 1.938-.979 1.938-1.625 4.188l-.762 2.425c-.729 2.608-.729 2.608-1.05 6.262C756 238 756 238 753.938 239.938c-.64.35-1.28.7-1.938 1.062v-4h2l.313-2.937c.934-6.492 2.996-12.614 6.687-18.063"></path>
        <path fill="#FDF8CF" d="M648 587h1v5l-1.937.625L645 594c-.39 1.99-.719 3.992-1 6-1.375 2.375-1.375 2.375-3 4h-3v-2h2l.813-2.125c1.916-4.639 3.926-9.02 7.187-12.875"></path>
        <path fill="#FCF0BA" d="m1257 531 1 3c-4.75 3-4.75 3-7 3l-.875 1.813c-2.207 4.292-3.66 5.592-8.125 7.187-1.34.652-2.677 1.314-4 2 2.898-4.013 5.865-6.33 10-9l2.25-2.25L1252 535h2v-2z"></path>
        <path fill="#EAFEFE" d="m3724 526-1 3c-6.952 1.312-13.884 1.11-20.937 1.063l-3.807-.014q-4.627-.018-9.256-.049v-1l2.06-.06c3.126-.096 6.252-.206 9.378-.315 1.069-.03 2.138-.062 3.24-.094 6.806-.25 13.689-2.531 20.322-2.531"></path>
        <path fill="#F7CE59" d="M1420 444h2v3l-2.25.875c-3.465 1.385-3.465 1.385-6.75 3.125l-1 3h-2v2l-6 1c2.826-3.894 5.577-6.27 9.688-8.75 3.338-1.884 3.338-1.884 6.312-4.25"></path>
        <path fill="#F8CE62" d="M539 584c1.354 2.709 1.065 5.01 1 8l-3 1-.312 3.313C536 600 536 600 534.563 601.938 533 603 533 603 531 603c1.059-3.403 2.009-6.014 4-9a75 75 0 0 0 1-5h2z"></path>
        <path fill="#F5C739" d="M936 542a91 91 0 0 1-4 4h-2v2a125 125 0 0 1-6 4v-4h3l-1-3c3.134-3.604 5.407-4.53 10-3"></path>
        <path fill="#FEF4CA" d="M1142 690c1.224 3.938.483 6.161-1 10h-2v3c-6.4 4.062-6.4 4.062-9.437 3.75L1128 706c5.75-3 5.75-3 8-3 1.467-2.88 2.82-5.793 4.125-8.75l1.07-2.422z"></path>
        <path fill="#E8FCFB" d="M2164 663c6.546 5.343 11.985 11.202 17 18-3.117-1.5-6.131-3.062-9-5l-1-3-2.437-2.375c-2.49-2.55-3.51-4.277-4.563-7.625"></path>
        <path fill="#FEF7D8" d="M623 629c1.02 2.669 1.07 3.8.11 6.543l-1.36 2.644-1.328 2.668C619 643 619 643 616 644l-1 3-1-2c.938-2.625.938-2.625 2-5h2l.813-2.687c1.104-3.082 2.415-5.575 4.187-8.313"></path>
        <path fill="#F1CC55" d="M918 567c6.929 3.19 12.812 8.478 18 14l-7-1-.625-2.312c-1.798-3.516-3.874-4.05-7.375-5.688l-1-3h-2z"></path>
        <path fill="#FEE9BA" d="M944 534h2c-.663 2.903-1.454 4.6-3.879 6.375q-2.15 1.293-4.344 2.512c-1.937.998-1.937.998-2.777 3.113h-2l-1 3-4-1h2v-2l1.875-.25L934 545l.813-1.75c1.593-3.02 3.81-4.262 6.628-6.102 1.715-1.08 1.715-1.08 2.559-3.148"></path>
        <path fill="#FCF6CF" d="m584 818 2 1 1 3 3-1-.125 3c-.017 4.238.983 7.932 2.125 12-4.064-2.032-5.398-7.938-7-12-.812-3.687-.812-3.687-1-6"></path>
        <path fill="#F3C548" d="M1545 544h2c1.257 2.906 2 4.796 2 8h2v24h-1l-.078-3.953c-.293-10.033-.855-18.74-4.922-28.047"></path>
        <path fill="#A4DBCE" d="M2202 452c-1.982 4.492-4.92 7.32-9 10-2.937.375-2.937.375-5 0 9.429-10 9.429-10 14-10"></path>
        <path fill="#A3D4CA" d="m3837 450 1 3-2 2h-4v2h-3l-.687 1.875c-1.692 2.74-3.305 3.175-6.313 4.125 1.488-3.816 3.57-5.38 6.938-7.625l2.652-1.79L3834 452z"></path>
        <path fill="#FEF1BC" d="m1584 708 3.344.96c5.032 1.26 9.989 1.485 15.156 1.665l2.781.117q3.36.14 6.719.258v1c-3.352.287-6.706.523-10.062.75l-2.858.246c-6.376.4-9.858-.258-15.08-3.996z"></path>
        <path fill="#FDF6CE" d="M670 548c1.946 3.475 2.076 5.125 1 9l-4-1v3h-2v3l-3 1c1.373-3.699 3.064-6.951 5.125-10.312l1.633-2.676z"></path>
        <path fill="#FDEDB7" d="M1504 510c8.336.901 16.633 3.338 22 10-2.383-.922-4.737-1.878-7.055-2.953-4.94-2.291-9.622-3.886-14.945-5.047z"></path>
        <path fill="#E7F9F6" d="M1541 344c.849 2.377 1.135 3.606.305 6.027-1.496 2.261-3.11 3.789-5.18 5.536l-2.055 1.753A162 162 0 0 1 1528 362l-2-1 2.012-1.687c5.461-4.72 9.528-8.97 12.988-15.313"></path>
        <path fill="#F4CC57" d="m900 104-3.437 1.438c-3.32 1.198-3.32 1.198-4.563 2.562-2.02.072-4.042.084-6.062.063l-3.348-.028L880 108c12.976-6.529 12.976-6.529 20-4"></path>
        <path fill="#A2DACE" d="M2952 572h1c.65 16.945.65 16.945-3 23l-3 1q.716-2.438 1.438-4.875l.808-2.742C2950 586 2950 586 2951 584c.229-2.037.41-4.08.563-6.125l.253-3.32z"></path>
        <path fill="#FEF6D2" d="M661 563c.762 2.242 1.151 3.54.398 5.824l-1.023 1.864-1.117 2.074L658 575l-1.383 2.52A714 714 0 0 1 653 584h-2l2-5 1-2.75c1-2.25 1-2.25 3-3.25.871-2.08.871-2.08 1.563-4.5 1.346-4.409 1.346-4.409 2.437-5.5"></path>
        <path fill="#A5D7CD" d="m4879 453 1 3c-4.648 4.865-8.979 8.002-15 11 4.273-5.234 8.816-9.671 14-14"></path>
        <path fill="#F8C74C" d="M1240 424c9.3-.665 15.842.422 24 5-3.479 1.16-4.342.775-7.687-.437l-2.45-.872L1252 427v-2h-12z"></path>
        <path fill="#FFFBDD" d="m1480.758 422.902 2.01.004q3.179.01 6.357.031l4.309.014q5.283.016 10.566.049v1h-28v2h-4v-2c2.922-1.461 5.5-1.112 8.758-1.098"></path>
        <path fill="#A9D9D0" d="m1827 385 2 1-2 3h-2l-1 3h-2l-.312 1.813c-.777 2.47-1.759 3.51-3.688 5.187l-3-1q1.654-1.908 3.313-3.812l1.863-2.145c3.273-3.666 3.273-3.666 4.824-5.043h2z"></path>
        <path fill="#EEC957" d="M967.563 710.938c1.207.03 1.207.03 2.438.063-4.308 3.302-6.52 4.154-12 4.187l-3.25.043c-2.75-.23-2.75-.23-4.75-2.23l3.027-.184 3.91-.254 3.902-.246c3.27-.327 3.62-1.303 6.723-1.379"></path>
        <path fill="#F3CD57" d="M733 797h1c1.268 7.324 1.268 7.324 0 11l-.437 2.188L733 812l-2 1-2 3c.737-6.485 2.353-12.692 4-19"></path>
        <path fill="#E1FAF9" d="M2868 548h1c-.586 6.152-.586 6.152-1 8l-2 1c-.836 2.313-.836 2.313-1.5 5-.719 2.75-.719 2.75-1.5 5l-2 1c1.062-7.45 3.341-13.437 7-20"></path>
        <path fill="#FACC5A" d="m396 443 2 1v4l-3.687.438c-3.14.39-6.22.886-9.313 1.562 2.153-2.35 4.217-3.824 7.063-5.25l2.097-1.078z"></path>
        <path fill="#FEECB7" d="m1212 436 4 1-1.898 1.426-2.477 1.887-2.46 1.863c-2.363 1.819-2.363 1.819-4.165 4.824h-2v3h-3v-2h2v-2l2-1 1-3h3l1-3h2z"></path>
        <path fill="#A6D7CF" d="M1928 331v3q-2.812.508-5.625 1l-3.164.563c-3.117.424-6.07.512-9.211.437 2.933-1.561 5.82-2.665 9-3.625.846-.26 1.691-.52 2.563-.79C1924 331 1924 331 1928 331"></path>
        <path fill="#F4CC5C" d="M784 176c1.267 3.801.572 5.385-1 9l-3 1c-1.709 3-1.709 3-3 6h-2c1.764-4.972 4.394-9.434 7-14h2z"></path>
        <path fill="#FEF5CF" d="M518 900c4.54 4.14 7.718 8.824 11 14l-3-1v-2l-2.875-.437C520 909 520 909 519.156 906.863A76 76 0 0 1 518 900"></path>
        <path fill="#FCD05C" d="M495 858h2v5h4v3l2 1h-2v5c-2.63-2.291-3.656-4.248-4.687-7.562l-.762-2.38C495 860 495 860 495 858"></path>
        <path fill="#FBFBEE" d="m1632 699 2 3c-.75 1.938-.75 1.938-2 4-2 .625-2 .625-4 1l-2 2v-2l-2-1z"></path>
        <path fill="#EECE4A" d="M848 628h4l1 3 3 1c.688 2.063.688 2.063 1 4h3l1 4c-3.656-1.534-5.987-3.75-8.75-6.562l-2.422-2.442C848 629 848 629 848 628"></path>
        <path fill="#F8CA57" d="M580 506h2c-1.989 9.025-1.989 9.025-5 13l-3 1c1.048-4.271 1.749-7.032 5-10 .714-2.103.714-2.103 1-4"></path>
        <path fill="#F4CD57" d="M558 939h4v2l1.813.375C566 942 566 942 569 944c1.655.385 3.322.728 5 1v2h2v2c-4.515-1.349-8.323-3.166-12.375-5.562-1.06-.62-2.12-1.24-3.21-1.88L558 940z"></path>
        <path fill="#FDF4C5" d="M824 840h1c.32 5.34-.466 8.337-3 13-.7 2.736-.7 2.736-1 5l-3 1c.547-3.375 1.055-5.082 3-8a177 177 0 0 0 3-11"></path>
        <path fill="#A8DAD0" d="M2329 560c3 3 3 3 3.157 4.901l-.302 2.11-.302 2.296-.365 2.38c-.11.798-.218 1.595-.33 2.417A485 485 0 0 1 2330 580h-1z"></path>
        <path fill="#FEF0C6" d="M1277 514c0 3 0 3-2.25 5.438L1272 522l-2.062 2.375L1268 526c-2.25-.25-2.25-.25-4-1l1.938-.812c2.393-1.075 2.393-1.075 3.062-4.188h3l.813-1.875C1274 516 1274 516 1277 514"></path>
        <path fill="#F4D468" d="m956 432 8 6 2.266 1.512L968 441v3c-1.812-.187-1.812-.187-4-1l-1.437-2.437c-1.856-3.043-3.216-3.568-6.563-4.563z"></path>
        <path fill="#F7CA54" d="M996 107q2.596.429 5.188.875l2.917.492c2.805.613 5.267 1.49 7.895 2.633v1c-4.161.082-7.947-.018-12-1v-2h-4z"></path>
        <path fill="#E3FAF9" d="M3951 686h2c-.324 3.064-.989 3.99-3.285 6.14l-2.778 2.11-2.785 2.14L3942 698l-2-1 3-1 .875-1.75c1.507-3.015 3.695-4.945 6.125-7.25z"></path>
        <path fill="#FAF2BD" d="M93 680h1l.262 1.836C95.394 688.59 97.675 694.034 101 700h-2c-2-3-2-3-2-6l-3-1c-2.209-4.638-1.994-8.03-1-13"></path>
        <path fill="#F4D060" d="M939 584c3.39 1.453 5.413 3.413 8 6l3 1v2l4 2c-3 0-3 0-5-1v-2h-5l-1-3-3-1c-.687-2.062-.687-2.062-1-4"></path>
        <path fill="#ACDBD1" d="m3785 500 1 2c-2.354 6.24-5.064 11.404-10 16 1.35-4.538 3.192-8.32 5.625-12.375l1.914-3.21z"></path>
        <path fill="#FDFACD" d="M996 106c7.687.256 13.352 1.037 20 5-3.892 1.283-6.062.38-9.828-1.164-3.321-1.278-6.708-2.032-10.172-2.836z"></path>
        <path fill="#FEFCEC" d="M648 969h16v1h-6v2c-3.312.188-3.312.188-7 0z"></path>
        <path fill="#FCF9CF" d="m923 699 6 3v2l1.813.313c2.47.776 3.51 1.758 5.187 3.687h-5l-1-3-3-.937-3-1.063c-.875-2.125-.875-2.125-1-4"></path>
        <path fill="#FEF6CB" d="M636 606h2c-3.018 10.018-3.018 10.018-6 13h-2c1.413-4.827 3.43-8.716 6-13"></path>
        <path fill="#FEFAD3" d="M488 538c3 1 3 1 4.64 3.617l1.61 3.258 1.64 3.242C497 551 497 551 496 554c-3.607-5.1-6.016-10.047-8-16"></path>
        <path fill="#A4D8CD" d="M1781 466h2c.25 5.625.25 5.625-2 9l.063 2.438c-.077 3.156-1.115 4.166-3.063 6.562.483-6.205 1.333-12 3-18"></path>
        <path fill="#FDF9DC" d="M613 444h5l-2 1v2l-5 5c-1.436 1.95-2.71 3.946-4 6-1-3-1-3-.062-5.187.35-.599.7-1.197 1.062-1.813h2l1-4h2z"></path>
        <path fill="#F8CD59" d="M916 431c-1.503 4.21-4.146 5.919-8 8-2.375-.25-2.375-.25-4-1l5-2v-2c4.385-3 4.385-3 7-3"></path>
        <path fill="#FCFCDE" d="m779 179 3 1-6 10-2-4c1.003-3.01 2.675-4.886 5-7"></path>
        <path fill="#FEFBE4" d="M1199 668q1.724 1.432 3.438 2.875l1.933 1.617C1206 674 1206 674 1207 676h-2l-1 2h-2v-2h-2z"></path>
        <path fill="#F4CF50" d="m629 616 2 1-8 14c-1-4-1-4-1-6l3-2c.724-2.06.724-2.06 1-4h2z"></path>
        <path fill="#F4C749" d="M1355 602c2.637 2.637 2.86 4.82 3.688 8.438l.824 3.496C1360 617 1360 617 1359 620a556 556 0 0 1-2-5.625l-1.125-3.164c-.88-3.229-1.035-5.883-.875-9.211"></path>
        <path fill="#A8D8D0" d="M5043 532c2.363 2.363 2.514 3.58 3.125 6.813l.508 2.582c.363 2.573.432 5.01.367 7.605-1.457-1.05-1.457-1.05-3-3-.512-3.355-.512-3.355-.687-7.187l-.2-3.856z"></path>
        <path fill="#A8D9CF" d="M2139 529c2 3 2 3 1.863 5.121-1.833 7.712-1.833 7.712-4.863 10.879.48-5.569 1.3-10.67 3-16"></path>
        <path fill="#F5C946" d="M457 480c2.675 1.337 2.989 2.733 4.188 5.438l1.105 2.433C463 490 463 490 462 492c-2.5-1.5-2.5-1.5-5-4-.454-2.801-.238-5.138 0-8"></path>
        <path fill="#F7CD58" d="m1192 456 2 1c-1.187 3.438-1.187 3.438-3 7-2.625.813-2.625.813-5 1l-1 2-3-1 1.68-1.426 2.195-1.887 2.18-1.863c2.137-1.865 2.137-1.865 3.945-4.824"></path>
        <path fill="#F4D267" d="m1228 428 2 1c-5.75 4-5.75 4-8 4l-2 4h-4v-2c3.776-2.787 7.689-5.138 12-7"></path>
        <path fill="#FEFAD2" d="M1037 272c2.836 5.58 3.104 9.775 3 16-2.016-1.61-2.016-1.61-4-4-.172-3.016-.172-3.016.25-6.25l.39-3.266c.12-.82.238-1.64.36-2.484"></path>
        <path fill="#F7C64C" d="M976 201h5v2l7-1v5c-4.234-1.31-8.074-2.944-12-5z"></path>
        <path fill="#FEEEB8" d="M972 101h12v2h7l1 2a149 149 0 0 1-20-3z"></path>
        <path fill="#FDF5C7" d="M936 708c5.449 1.72 10.712 3.847 16 6v1c-6.134-.43-9.883-1.554-15-5z"></path>
        <path fill="#FDEDC0" d="M1450 704q2.47.462 4.938.938l2.777.527C1460 706 1460 706 1461 707q3.493.553 7 1v1c-11.825.689-11.825.689-15.75-1.937L1450 705z"></path>
        <path fill="#F7D168" d="m102 700 4 1v2l1.625.375c2.839.747 5.597 1.678 8.375 2.625v2l2 1c-6.061-.31-10.368-3.324-15-7z"></path>
        <path fill="#E8F9F8" d="M2883 535v2c-1.61 1.586-1.61 1.586-3.75 3.375-2.874 2.441-5.635 4.901-8.25 7.625l-2-1c9.752-12 9.752-12 14-12"></path>
        <path fill="#FCF5CE" d="m680 531 1 3 2 1c-2.853 2.932-5.65 5.643-9 8 1.319-4.615 3.214-8.099 6-12"></path>
        <path fill="#F5D05D" d="M870 469h2c-1.668 3.941-4.227 6.79-7 10l-3-2a91 91 0 0 1 4-4h2z"></path>
        <path fill="#FDF6CE" d="m1437 432 6 1c-2.422 2.873-4.597 3.708-8.187 4.688-.902.25-1.803.502-2.731.761L1430 439v-2l2.938-.812L1436 435z"></path>
        <path fill="#A6DCD0" d="M4327 320c1.278 3.612.713 6.046-.312 9.688l-.801 2.949C4325 335 4325 335 4323 336c.392-5.955 1.371-10.628 4-16"></path>
        <path fill="#F5CA57" d="M1035 261h2l.367 1.793c1.073 5.08 1.073 5.08 2.82 9.957 1.005 2.78.614 4.448-.187 7.25-1.805-3.256-2.74-6.453-3.625-10.062-.26-1.043-.52-2.086-.79-3.16C1035 264 1035 264 1035 261"></path>
        <path fill="#F5C84E" d="M912 199c-4.293 2.862-8.918 4.984-14 6v-2h2v-3c4.064-.774 7.864-1.098 12-1"></path>
        <path fill="#F8CD65" d="m1040 125 4 1v2l2.25.75c2.951 1.341 4.598 2.86 6.75 5.25-2.972-1.125-5.334-2.223-8-4-2.625-.167-2.625-.167-5 0z"></path>
        <path fill="#A7D7CC" d="M4325 692c2.9 2.395 3.502 4.312 4 8h3l2 6c-7.8-6.07-7.8-6.07-9-11z"></path>
        <path fill="#AADCD2" d="M2105 648h1c.054 1.896.093 3.791.125 5.688l.07 3.199c-.196 3.136-.864 5.29-2.195 8.113h-1v-9h2z"></path>
        <path fill="#F7CC50" d="m1169 639 7 1 2 7c-3.721-2.315-6.612-4.286-9-8"></path>
        <path fill="#F3CF67" d="M427 626c3.635 1.212 3.952 2.108 5.75 5.375l1.36 2.398C435 636 435 636 434 639a577 577 0 0 1-2.937-4.25l-1.653-2.39c-1.306-2.186-1.96-3.875-2.41-6.36"></path>
        <path fill="#FEF8D8" d="m1538 594 5 1c-1.45 4.11-3.511 7.433-6 11l-2-3h3z"></path>
        <path fill="#FDF1C5" d="M399 580h2a519 519 0 0 1 2.5 4.313l1.406 2.425C406 589 406 589 406 592c-1.5-1.312-1.5-1.312-3-3v-3h-2l-1-2h-4v-2h3z"></path>
        <path fill="#F7C64D" d="m392 555 1 13c-2.854-3.806-4.254-6.676-6-11 3.875-2 3.875-2 5-2"></path>
        <path fill="#F4C64B" d="M956 521h2c-1.559 3.826-3.954 6.251-7 9l-3 1 1-4h3l2-4h2z"></path>
        <path fill="#F5D069" d="M1296 471c1.48 1.059 1.48 1.059 3 3 .363 3.285.363 3.285.313 7.063l-.012 3.785C1299 488 1299 488 1297 490l.035-2.379c.049-5.658-.022-11.05-1.035-16.621"></path>
        <path fill="#ACDCD2" d="M4896 443v2l-5.125 2.914c-1.54.892-3.055 1.827-4.562 2.774-2.15 1.22-3.899 1.865-6.313 2.312 2.803-2.999 5.594-5.163 9.125-7.25l2.633-1.578C4894 443 4894 443 4896 443"></path>
        <path fill="#F8CB5B" d="M189 256c3.427 5.14 3.102 10.008 3 16h-1v-5h-3z"></path>
        <path fill="#FEF6C5" d="M156 237h12v2h4v2l-16-3z"></path>
        <path fill="#F8D05F" d="m860 116-1 3c-2.066.73-2.066.73-4.562 1.188l-2.504.48L850 121v2l-4-1h2v-2l6-1v-2c2-1 2-1 6-1"></path>
        <path fill="#F7D36F" d="M728 816c1.349 4.379.784 7.813-1 12-2.625 2.5-2.625 2.5-5 4 .762-3.61 2.125-6.858 3.563-10.25l1.378-3.266z"></path>
        <path fill="#E7FBFB" d="M4652 707c-2.525 2.525-4.735 3.043-8.125 4.125l-3.32 1.07L4638 713l-2-2q3.433-1.294 6.875-2.562l1.973-.749c4.925-1.802 4.925-1.802 7.152-.689"></path>
        <path fill="#F1CE54" d="m984 696 4 1-9 9-1-2 1-3h2v-2h3z"></path>
        <path fill="#E4F8F8" d="m2953 688 1 4-4.492 3.71c-1.219 1.043-2.375 2.157-3.508 3.29l-2-2 1.46-1.207 1.915-1.606 1.898-1.582c1.95-1.687 1.95-1.687 3.727-4.605"></path>
        <path fill="#FEF7CF" d="M531 597h2c-3.018 10.018-3.018 10.018-6 13h-2v-2h2v-5h2z"></path>
        <path fill="#A5D5CD" d="M4940 536h3v2l2.375.688c2.625 1.312 2.625 1.312 4 3.75C4950 545 4950 545 4949 548l-1.687-2.625c-2.216-3.334-4.709-6.337-7.313-9.375"></path>
        <path fill="#A3D5CD" d="M2248 532a819 819 0 0 1-4.375 4l-2.46 2.25C2239 540 2239 540 2237 540v-3h3v-2h2v-3c2.49-1.245 3.41-.777 6 0"></path>
        <path fill="#FEF0C5" d="M1458 522h2c-.25 1.875-.25 1.875-1 4-2.062 1.25-2.062 1.25-4 2v2h-2v2h-2c.473-4.255 2.964-6.192 6-9z"></path>
        <path fill="#FEF2BE" d="M1573 447h4v2l1.813.313c2.525.793 3.536 1.643 5.187 3.687l1 3c-3.438-1.528-6.19-3.502-9-6v-2z"></path>
        <path fill="#F9CA58" d="m903 439 1 2h-2l-.312 2.375C901 446 901 446 898 448c-2.187-.375-2.187-.375-4-1l2.813-2.312c2.17-1.806 4.243-3.636 6.187-5.688"></path>
        <path fill="#F5C958" d="M509 885h2a791 791 0 0 1 3 5l3 2c.188 3.125.188 3.125 0 6-3.511-4.013-5.765-8.21-8-13"></path>
        <path fill="#F8D05C" d="M704 855v2h-2l-.5 1.938c-1.5 2.062-1.5 2.062-3.414 2.55-2.022.24-4.054.38-6.086.512 9.1-7 9.1-7 12-7"></path>
        <path fill="#FEEFBE" d="M479 805h1q.506 2.842 1 5.688l.563 3.199c.388 2.762.52 5.33.437 8.113-1.488-1.05-1.488-1.05-3-3-.293-3.355-.293-3.355-.187-7.187l.082-3.856z"></path>
        <path fill="#FDF2C5" d="M1244 704c4.615 1.319 8.099 3.214 12 6-3.053.981-4.947.981-8 0v-3h-3z"></path>
        <path fill="#FEEEB4" d="M516 592c3 1 3 1 5 4a76 76 0 0 1 1.125 5.188l.508 2.73L523 606c-2.912-1.456-3.318-3.5-4.625-6.437l-1.352-2.997C516 594 516 594 516 592"></path>
        <path fill="#FDF4CD" d="m1232 552 2 1c-4.625 5.875-4.625 5.875-8 7l-2 3c0-4 0-4 1.75-5.922l2.25-1.828 2.25-1.86z"></path>
        <path fill="#EFCB54" d="m922 552 2 1-11 9v-3h2l1-4h3v-2z"></path>
        <path fill="#E7FCFB" d="M4935 534c5.523 2.235 8.45 5.405 12 10h-3v-2h-3l-.75-1.875c-1.456-2.476-2.628-3.076-5.25-4.125z"></path>
        <path fill="#E6FCF9" d="m4465 498 3 2-6 12c-.625-1.812-.625-1.812-1-4l2-3c.708-2.321 1.38-4.654 2-7"></path>
        <path fill="#A8D9D1" d="M2815 470c0 3.977-1.38 5.089-4 8-2.25 1.813-2.25 1.813-4 3l-2-1z"></path>
        <path fill="#FFF5C7" d="m1397 458 4 1a615 615 0 0 1-3.75 3.875l-2.11 2.18c-1.991 1.81-3.683 2.893-6.14 3.945v-3a99 99 0 0 1 5-3l1-2h2z"></path>
        <path fill="#E5FDFC" d="M3192 449c0 3 0 3-2.375 5.688C3187 457 3187 457 3185 457l-1 3-2-1 1-3 3-1a210 210 0 0 0 4-5z"></path>
        <path fill="#E3F8F5" d="m1901 444 1 3a483 483 0 0 1-3.375 3l-1.898 1.688C1895 453 1895 453 1893 453v2l-2-1c3.079-3.87 6-7.03 10-10"></path>
        <path fill="#FAD879" d="M1134 249c2.365 2.365 2.55 3.64 3.188 6.875l.542 2.617c.27 2.5.047 4.139-.73 6.508l-2-1a96 96 0 0 1-.625-7.562l-.117-2.155c-.095-1.76-.177-3.522-.258-5.283"></path>
        <path fill="#FEF5CD" d="M853 247c1.063 3.203.966 4.99-.25 8.125l-.766 2.07C851 259 851 259 848 261c1.543-4.72 3.078-9.417 5-14"></path>
        <path fill="#FEF5D0" d="m1055 134 5 1v2l4-1 1 6a775 775 0 0 1-4.437-2.875l-2.497-1.617C1056 136 1056 136 1055 134"></path>
        <path fill="#FDEFB7" d="m781 914 1 2c-1.876 4.064-3.936 6.124-8 8l-2-1 1.875-.75c2.532-1.49 2.932-2.626 4.125-5.25 1.625-1.75 1.625-1.75 3-3"></path>
        <path fill="#F3CA42" d="M586 825c1.79 2.686 2.66 4.663 3.625 7.688.26.808.52 1.616.79 2.449.192.615.386 1.23.585 1.863l-3 1q-.507-2.123-1-4.25l-.562-2.39C586 829 586 829 586 825"></path>
        <path fill="#FEF1D2" d="M888 668c3.434 1.145 4.586 2.726 6.793 5.5 1.3 1.617 2.701 3.073 4.207 4.5-5.75-1.625-5.75-1.625-8-5l-3-1z"></path>
        <path fill="#F1D261" d="m1199 667 4 2v2l6 2 1 5c-8.631-5.966-8.631-5.966-11-11"></path>
        <path fill="#E7FFFE" d="M1820 648c4.526 3.678 8.394 7.41 12 12l-5-2v-2l-3-1c-4-4.457-4-4.457-4-7"></path>
        <path fill="#F0CB4B" d="M867 646c3.579 1.652 6.748 3.783 10 6l-1 4a1766 1766 0 0 1-4.5-4.437l-2.531-2.497C867 647 867 647 867 646"></path>
        <path fill="#F5CC35" d="M674 530h6a101 101 0 0 1-2 6l-2 1c-1.46-2.647-2-3.894-2-7"></path>
        <path fill="#FDF1B7" d="M689 515c.75 1.563.75 1.563 1 4-1.125 2.5-2.532 4.668-4 7l-1 2h-2c2.89-9.595 2.89-9.595 6-13"></path>
        <path fill="#F4D35C" d="m861 478 1 3c-1.404 2.264-3.197 4.02-5 6l-3-2 2-3h2v-2z"></path>
        <path fill="#9CDFD1" d="m2557 459 1 2h2c-1.135 3.404-1.968 4.217-5 6l-3-1z"></path>
        <path fill="#F5C951" d="M971 447c2.964 2.808 5.445 5.183 7 9h-5c-1.783-3.23-2-5.325-2-9"></path>
        <path fill="#A1D6CC" d="M2088 424h2c-1.444 3.239-3.258 5.62-5.625 8.25l-1.914 2.14L2081 436c0-4.053 1.582-5.822 4-9l3-1z"></path>
        <path fill="#E6FBF8" d="m1964 418-1.937.938c-2 .897-2 .897-3.063 2.062a92 92 0 0 1-5.062.063l-2.786-.028L1949 421c5.024-3.35 9.1-3.098 15-3"></path>
        <path fill="#A5D9D0" d="m3488 376 3 1c-.707 3.674-2.188 6.74-4 10l-2 1-1-4h3z"></path>
        <path fill="#B4D8D3" d="M1444 340c1.5 1.375 1.5 1.375 3 3v2h2c2.188 2.313 2.188 2.313 4 5l-1 3c-3.674-3.376-6.054-6.391-8-11z"></path>
        <path fill="#ADDFD4" d="M2459 326h1q.039 2.718.063 5.438l.035 3.058C2460 337 2460 337 2459 338a70 70 0 0 0-.562 4.063L2458 346h-1c-.266-6.95.388-13.235 2-20"></path>
        <path fill="#E1FBF5" d="m1546 296 4 1v15h-1l-.402-2.23-.535-2.957-.528-2.918A463 463 0 0 0 1546 296"></path>
        <path fill="#F1D05D" d="M1000 215c3.8.513 5.431 1.208 8 4 2.1 1.176 2.1 1.176 4 2v3c-4.733-2.003-8.394-5.394-12-9"></path>
        <path fill="#FDFCDE" d="M979 205h2v2l3.188-.187c3.97.195 5.654.89 8.812 3.187l-4 1v-2l-11-1z"></path>
        <path fill="#FBFADF" d="M1107 187h2v2l1.938.813C1113 191 1113 191 1114 194a100 100 0 0 1 0 5c-2.822-1.41-2.896-3.077-4-6a399 399 0 0 0-3-6"></path>
        <path fill="#F4D061" d="M1384 719v1a560 560 0 0 1-5.75 1.563l-3.234.878c-2.86.53-4.332.543-7.016-.441 5.14-3.427 10.008-3.102 16-3"></path>
        <path fill="#FDFAD2" d="m1532 606 3 2-8 8-1-4h3v-3h3z"></path>
        <path fill="#A8D6CE" d="M3943 594c1 3 1 3 .145 4.973l-1.332 2.09-1.293 2.097c-1.674 2.027-3.112 2.845-5.52 3.84 2.599-4.376 5.294-8.69 8-13"></path>
        <path fill="#F5D065" d="M1629 518c3.538 3.692 3.591 7.094 4 12h-2c-1.998-4.12-2.178-7.452-2-12"></path>
        <path fill="#F6CF61" d="m605 460 1 3c-1.312 2.438-1.312 2.438-3 5a174 174 0 0 0-2 4h-2c1.182-5.023 2.45-8.095 6-12"></path>
        <path fill="#F7D25E" d="m892 448 2 1-3 6c-2.314.73-4.648 1.401-7 2l1-2h2l.813-1.812c1.172-2.16 2.38-3.546 4.187-5.188"></path>
        <path fill="#FEFAD0" d="M1240 424a184 184 0 0 1-8.562 4.063l-2.317 1.035C1227 430 1227 430 1224 431v-2h2l1-3c4.438-1.405 8.321-2.292 13-2"></path>
        <path fill="#A6D5CD" d="m1494.313 259.938 3.238.027 2.45.036v1l-2.153.183-2.785.254-2.777.246c-2.247.077-2.247.077-3.285 1.316q-3 .063-6 0v-2c3.837-.904 7.375-1.105 11.312-1.062"></path>
        <path fill="#FEF3C3" d="m993 689 1 4-2 3h-3l-1 3-2-1z"></path>
        <path fill="#E8FBFA" d="m2371 684 2 1-1.937 1.813c-2.266 2.095-2.266 2.095-3.063 5.187l-7 1c3.147-3.268 6.494-6.131 10-9"></path>
        <path fill="#FEF6D4" d="M439 648c2.743 3.2 4.63 6.005 6 10l-5-2z"></path>
        <path fill="#FDF6D2" d="M1161 632q1.724 1.432 3.438 2.875l1.933 1.617C1168 638 1168 638 1169 640h-5c-3-5.75-3-5.75-3-8"></path>
        <path fill="#ECFDFC" d="m3268 591 2 1c-1.45 4.11-3.511 7.433-6 11-1-3-1-3-.004-5.262l1.441-2.426 1.434-2.449z"></path>
        <path fill="#F8C750" d="m643 590 2 2-5 10h-1v-5h2v-5h2z"></path>
        <path fill="#F9C754" d="m1229 568 4 2v2l1.813.813c2.16 1.172 3.545 2.38 5.187 4.187-2.782-.376-4.588-.673-6.812-2.437C1232 573 1232 573 1232 571l-3-1z"></path>
        <path fill="#A9DCD1" d="M3775 519c1.089 2.831.961 4.165.25 7.188L3774 529l-3 1q.716-2.188 1.438-4.375l.808-2.46C3774 521 3774 521 3775 519"></path>
        <path fill="#F6D373" d="m1379 480 1 3c-1.363 2.008-1.363 2.008-3.312 4.125l-1.926 2.133C1373 491 1373 491 1371 492c1.51-4.98 4.557-8.243 8-12"></path>
        <path fill="#F8C547" d="M1290 461c2.28 2.172 4.363 4.3 6 7-.312 2.25-.312 2.25-1 4l-2-4h-3z"></path>
        <path fill="#ABD8CE" d="M4792.328 439.316 4794 440a763 763 0 0 1-5.875 3.062l-3.305 1.723L4782 446l-2-1a334 334 0 0 1 4.75-3.063l2.672-1.723c2.578-1.214 2.578-1.214 4.906-.898"></path>
        <path fill="#A6D7CD" d="m1871 353 1 2c-2.422 2.873-4.597 3.708-8.187 4.688-.902.25-1.803.502-2.731.761L1859 361c1.468-2.935 3.693-3.608 6.563-5.125l3.066-1.633z"></path>
        <path fill="#F2CB60" d="M577 792h1l2 16c-3-3-3-3-3.293-6.137l.106-3.55.082-3.575z"></path>
        <path fill="#FEF6CA" d="M364 709c-7.286 4.571-7.286 4.571-12 4v-2q2.434-.794 4.875-1.562l2.742-.88C362 708 362 708 364 709"></path>
        <path fill="#ACD9D0" d="M2216 703c4.195.6 8.01 1.575 12 3v3c-4.035-1.59-8.018-3.282-12-5z"></path>
        <path fill="#9FD4CB" d="m2727 697 1 3c-2.312 3.188-2.312 3.188-5 6h-2c1.875-4.75 1.875-4.75 3-7h3z"></path>
        <path fill="#A0D9D1" d="m4272 693 4 1-4 8h-2z"></path>
        <path fill="#FCE08A" d="M458 680c5.846 4.308 5.846 4.308 7 8-.375 2.25-.375 2.25-1 4-3-4.75-3-4.75-3-7l-3-1z"></path>
        <path fill="#FEF5D2" d="M1210 679c4.09 2.285 7.464 4.957 11 8l-2 1a340 340 0 0 1-3.5-2.375l-1.969-1.336L1212 683v-2h-2z"></path>
        <path fill="#A5D8CE" d="m2096 676-10 7v-3l4-1v-3c2-1 2-1 6 0"></path>
        <path fill="#F3C947" d="M1236 544h5c-2.416 3.192-4.68 5.747-8 8l-1-4h4z"></path>
        <path fill="#A4D6CE" d="m3872.188 538.313 1.813.688c-2.578 2.647-4.917 4.944-8 7 .367-2.717.727-4.611 2.312-6.875 1.688-1.125 1.688-1.125 3.875-.813"></path>
        <path fill="#A4D3CB" d="M3207 532v2c-1.68 1.508-1.68 1.508-3.875 3.125l-2.18 1.633C3199 540 3199 540 3197 540v-3h3v-2c4.385-3 4.385-3 7-3"></path>
        <path fill="#A9DDD4" d="M3247 532c2.313-.187 2.313-.187 5 0 1.5 1.313 1.5 1.313 3 3 1.646 1.034 3.31 2.04 5 3l-2 2q-2.19-1.433-4.375-2.875l-2.46-1.617C3249 534 3249 534 3247 532"></path>
        <path fill="#F9CA59" d="M1291 496h4v2h-2l-1 3a95 95 0 0 1-5 4l1-5 3-1z"></path>
        <path fill="#F9D05E" d="M1619 496c3.55 3.905 4.818 6.977 6 12l-2 1c-2.02-4.393-3.409-8.153-4-13"></path>
        <path fill="#FCE9AA" d="m1288 456 3 1 1 3 1.625 1.438L1295 463c-.414 2.098-.414 2.098-1 4a783 783 0 0 1-3-4.375l-1.687-2.46C1288 458 1288 458 1288 456"></path>
        <path fill="#ADDCD2" d="m4274 440 2.313.938c1.875.74 3.774 1.424 5.687 2.062v2l4 2c-3.784 0-5.749-1.103-9-3-1.875-2.187-1.875-2.187-3-4"></path>
        <path fill="#DAF5F4" d="M4342 396c4.69.566 9.345 1.185 14 2v1l-11 1v-2z"></path>
        <path fill="#E5F6F6" d="m1524 362 2 1c-1.782 2.301-3.163 3.8-6.047 4.488-1.978.235-3.966.38-5.953.512 3.283-2.188 6.508-4.159 10-6"></path>
        <path fill="#A4D9CF" d="M4657 704c-1.41.702-2.828 1.386-4.25 2.063l-2.39 1.16c-2.62.863-3.809.707-6.36-.223v-2l3.375-.437c7.58-1.177 7.58-1.177 9.625-.563"></path>
        <path fill="#FEF0BD" d="M1431.125 696.25C1433 697 1433 697 1434 699l-11 2c5.105-5.105 5.105-5.105 8.125-4.75"></path>
        <path fill="#A7D6D1" d="M3181 688h3v2l3 1c1.845 1.876 3.368 3.927 5 6-3.597-.573-5.253-1.897-7.75-4.5l-1.86-1.906C3181 689 3181 689 3181 688"></path>
        <path fill="#FEF9D6" d="M461 687c3.114 2.076 3.987 3.305 5.75 6.5l1.36 2.406L469 698l-1 2a631 631 0 0 1-3.5-4.812l-1.969-2.708C461 690 461 690 461 687"></path>
        <path fill="#E4FAF8" d="M3319 679c.625 1.875.625 1.875 1 4-2.565 2.565-4.477 2.54-8 3 2.22-2.908 3.93-4.953 7-7"></path>
        <path fill="#E7FEFC" d="M3795 662c3.26 3.17 6.222 6.4 9 10l-4-2-2.187-.75C3796 668 3796 668 3795.25 664.875z"></path>
        <path fill="#FACA43" d="M888 666h5c.625 1.875.625 1.875 1 4l-2 2-1-3-3-1z"></path>
        <path fill="#93D1C5" d="m1978 625 1 2c-6.4 1.23-6.4 1.23-9.437.063L1968 626c3.473-1.158 6.36-1.069 10-1"></path>
        <path fill="#FEEDB8" d="M466 496h3v5h2l1 7c-2.748-3.402-6-7.485-6-12"></path>
        <path fill="#FEF9CD" d="M353 492h1c1.138 4.266 2 7.565 2 12l-3-1z"></path>
        <path fill="#FCF7CE" d="M593 477h2c-1.741 7.098-1.741 7.098-5 10q.463-2.22.938-4.437l.527-2.497C592 478 592 478 593 477"></path>
        <path fill="#F4DC75" d="m1387 470 2 1-1.312 1.125c-2.15 2.388-3.336 4.977-4.688 7.875l-3-1 2-3h2l.375-1.875C1385 472 1385 472 1387 470"></path>
        <path fill="#FBCE59" d="m1176 472 1 3c-2.596 2.874-4.214 4.244-8 5l2.938-3.437 1.652-1.934A50 50 0 0 1 1176 472"></path>
        <path fill="#F1C550" d="m853 244 2 1-5 11h-1v-6h2l.438-1.875C852 246 852 246 853 244"></path>
        <path fill="#FEF7D4" d="m1550 699 2 1-2 4-6-1c2.052-2.248 3.007-3.002 6-4"></path>
        <path fill="#E8FDFB" d="M1950 620c2.383.242 2.383.242 5.125.875l2.758.617L1960 622v2l-12-2z"></path>
        <path fill="#F4CE57" d="m1255 591 6 3v2l4 2-4 1-.187-1.875c-.642-2.403-.642-2.403-3.376-3.375L1255 593z"></path>
        <path fill="#FEF5C5" d="M497 555h2v4h2c3.115 4.153 3.115 4.153 2.688 7.313L503 568c-3-5.75-3-5.75-3-8h-2z"></path>
        <path fill="#E1FBF9" d="M4687 464c2.71.155 4.466.482 6.445 2.402 1.232 1.496 2.398 3.044 3.555 4.598l-1 2a1496 1496 0 0 1-4.5-3.937l-2.531-2.215L4687 465z"></path>
        <path fill="#97D1C4" d="m2967 444 3 1c-2 3-2 3-5 4-1.209 2-1.209 2-2 4l-1-3c1.404-2.264 3.197-4.02 5-6"></path>
        <path fill="#A3DBCF" d="M2873 440c-3.833 2.706-6.325 3.326-11 3v-2c7.429-2.429 7.429-2.429 11-1"></path>
        <path fill="#FDF3CA" d="M1263 424h3v2l-2 1v2a129 129 0 0 1-7-2l-1-2c1.454.03 1.454.03 2.938.063 2.937.293 2.937.293 4.062-1.063"></path>
        <path fill="#DFFBF8" d="m1833 377 3 1-7 7-1-4h3z"></path>
        <path fill="#FAD06A" d="m761 216 2 4-3 2a88 88 0 0 0-3 5c0-3.196.547-4.417 2-7.187l1.125-2.168z"></path>
        <path fill="#FBD06F" d="M1116 204c2.534 1.267 2.932 2.431 4.188 4.938l1.105 2.152.707 1.91-1 2c-1.937-1-1.937-1-4-3-.665-2.7-.817-5.206-1-8"></path>
        <path fill="#FDF4BF" d="M815 864c.652 1.766.652 1.766 1 4-.996 1.922-.996 1.922-2.437 3.75l-1.434 1.86L811 875c0-3.196.547-4.417 2-7.187l1.125-2.168z"></path>
        <path fill="#F6C54F" d="M1251 707h4v2l5-1v3c-5.538-.615-5.538-.615-7.875-2.562z"></path>
        <path fill="#F3C74C" d="M1557 695c-1.538 3.076-3.912 3.703-7 5l-3-1c3.41-3.119 5.316-4.535 10-4"></path>
        <path fill="#E3FCFB" d="M3180 688q1.724 1.432 3.438 2.875l1.933 1.617C3187 694 3187 694 3188 696a56.5 56.5 0 0 1-7-4l-2 1z"></path>
        <path fill="#FEF7D2" d="m1288 615 8 1v4l-4-1v-2z"></path>
        <path fill="#FFF1BB" d="M352 611h10v2l2 1c-4.814-.481-7.602-.8-12-3"></path>
        <path fill="#FDF5C2" d="M377 541c3.092 2.53 3.91 5.225 5 9-3-1-3-1-4.187-2.812C377 545 377 545 377 541"></path>
        <path fill="#FDF7D7" d="m953 527 2 1-5 6-3-1z"></path>
        <path fill="#FDF5C4" d="M1487 511c-3.634 2.326-6.77 2.163-11 2 3.602-3.602 6.307-2.939 11-2"></path>
        <path fill="#FBF6BE" d="M989 488c.966 2.608 1.028 3.894.313 6.625-1.48 2.676-2.49 3.34-5.313 4.375l.813-1.562c1.51-3.102 2.843-6.26 4.187-9.438"></path>
        <path fill="#F8C54D" d="M1584 456q1.974 1.43 3.938 2.875l2.214 1.617C1592 462 1592 462 1593 464c-3.375-.625-3.375-.625-7-2-1.437-3.125-1.437-3.125-2-6"></path>
        <path fill="#E3F8F7" d="M4407 387c.625 1.875.625 1.875 1 4-2.565 2.565-4.477 2.54-8 3l1-2h3l.938-1.937C4406 388 4406 388 4407 387"></path>
        <path fill="#F5C741" d="M102 247h3c-1.443 3.366-3.333 5.51-6 8 1.875-6.875 1.875-6.875 3-8"></path>
        <path fill="#F1CC55" d="M170 241c1.65.422 3.295.863 4.938 1.313l2.777.738L180 244l1 3c-3.674-.707-6.74-2.188-10-4z"></path>
        <path fill="#FEF1B6" d="M916 200c-4.23 2.417-7.123 3.348-12 3 1-2 1-2 4.313-3.187 3.263-.72 4.68-1.016 7.687.187"></path>
        <path fill="#FDF8CE" d="M103 702c4.131 1.922 7.533 4.043 11 7l-6-1-1-3c-2.015-.733-2.015-.733-4-1z"></path>
        <path fill="#E7FCFA" d="M2048 705c-1.187 1.563-1.187 1.563-3 3-2.687-.312-2.687-.312-5-1 1.858-3.716 4.555-3.07 8-2"></path>
        <path fill="#F2CD4A" d="M1138 700a91 91 0 0 1-4 4h-2v-4c2.49-1.245 3.41-.777 6 0"></path>
        <path fill="#E5FDFC" d="M3808 676a271 271 0 0 1 3.5 2.813l1.969 1.582C3815 682 3815 682 3815 685c-3.775-1.258-4.198-2.559-6-6z"></path>
        <path fill="#ABDAD3" d="M3725 644c2.39 3.825 2.56 7.597 3 12h-2v-6h-2z"></path>
        <path fill="#FFF7C1" d="M1356 612c1.991 2.986 2.941 5.597 4 9l-5 2 .5-3.25c.588-3.78.588-3.78.5-7.75"></path>
        <path fill="#E4FCFA" d="M3878 612h5l1 2c2.025.652 2.025.652 4 1v2c-7.571-1.857-7.571-1.857-10-5"></path>
        <path fill="#F3C851" d="M1540 600c.813 1.688.813 1.688 1 4-2.437 2.75-2.437 2.75-5 5l-2-1 3.809-4.492c1.279-1.514 1.279-1.514 2.191-3.508"></path>
        <path fill="#A4D7CD" d="m1791 591 2 9h-2c-3-5.75-3-5.75-3-8 2-1 2-1 3-1"></path>
        <path fill="#FCF7C2" d="M1544 542c2.19 3.285 2.998 6.207 4 10h-4z"></path>
        <path fill="#E0F9F6" d="m3867 545 1 3c-1.937 2.688-1.937 2.688-4 5l-2-1c3.875-5.875 3.875-5.875 5-7"></path>
        <path fill="#FCF8C6" d="M371 531c3.092 2.53 3.91 5.225 5 9-3-1-3-1-4.187-2.812C371 535 371 535 371 531"></path>
        <path fill="#FEFDDA" d="M357 468h3c-1.25 3.46-2.675 6.147-5 9 .486-3.123.999-5.996 2-9"></path>
        <path fill="#A7DACF" d="M2825 461c0 3.106-.54 4.353-2 7l-4-2z"></path>
        <path fill="#EBFDFC" d="m4881 449 2 2-8 6c.188-2.312.188-2.312 1-5 2.563-1.812 2.563-1.812 5-3"></path>
        <path fill="#F4CE60" d="M1559 439q1.974.928 3.938 1.875l2.214 1.055C1567 443 1567 443 1568 445h-3v-2h-5z"></path>
        <path fill="#9FD7C9" d="M4341 441c-.812 1.938-.812 1.938-2 4l-3 1v-2l-2-1c2.647-1.46 3.894-2 7-2"></path>
        <path fill="#E3FDFA" d="M3649 348a85 85 0 0 1 7 2l1 6z"></path>
        <path fill="#FEF1C1" d="M95 253h3l-.875 2.125c-1.146 2.93-2.151 5.884-3.125 8.875h-1c1-7.429 1-7.429 2-11"></path>
        <path fill="#FDF5CB" d="m859 238 1 4-3 1c-.733 2.015-.733 2.015-1 4h-2c1.875-4.75 1.875-4.75 3-7h2z"></path>
        <path fill="#FDF0C5" d="m753 233 1 4h-2l-1 8c-1.376-3.82-.813-7.082 0-11z"></path>
        <path fill="#FAD263" d="M1104 184c2.799 2.528 4.458 4.204 5 8l-5-1z"></path>
        <path fill="#FFF6DC" d="M1089 164c4 1 4 1 5.813 2.875L1096 169l-1 3z"></path>
        <path fill="#FEEAB3" d="m716 959-1 2c-2.285.414-2.285.414-5.062.625l-2.786.227L705 962c3.26-3.26 6.6-4.467 11-3"></path>
        <path fill="#A9DDD4" d="M3646 708c3.625.375 3.625.375 7 1v2l-9-1z"></path>
        <path fill="#FEF4C7" d="M603 664c1.125 3.75 1.125 3.75 0 6h-2v2h-2c1.125-2.972 2.223-5.334 4-8"></path>
        <path fill="#EFCB52" d="M614 642c1 3 1 3 .223 4.824L611 652c-1.208-3.623-.543-4.641 1-8h2z"></path>
        <path fill="#FEF5BF" d="M623 629c.688 1.688.688 1.688 1 4-1.312 2.75-1.312 2.75-3 5h-2c1.059-3.403 2.009-6.014 4-9"></path>
        <path fill="#E1FCF8" d="M2412 628h1c.125 5.75.125 5.75-1 8h-2v3l-2-1z"></path>
        <path fill="#EBD252" d="M973 612c3.536 1.911 5.79 3.626 8 7l-5-1-1-3-2-1z"></path>
        <path fill="#FEEFB8" d="M1454 608c2.313.125 2.313.125 5 1 1.813 3.063 1.813 3.063 3 6-3.795-1.491-5.61-3.757-8-7"></path>
        <path fill="#F9CE61" d="M490 543c3.243 1.621 3.689 4.751 5 8l1 2-4-1z"></path>
        <path fill="#FCF4CF" d="M946 534c-.687 2.375-.687 2.375-2 5-2.625 1.313-2.625 1.313-5 2 3.138-7 3.138-7 7-7"></path>
        <path fill="#EFCB47" d="m1256 530 2 1-4 2v2l-3 1v-4c2.375-1.062 2.375-1.062 5-2"></path>
        <path fill="#F6CD6F" d="M1625 508c2.834 3.203 3.52 5.78 4 10-3.938-4.308-3.938-4.308-4.25-7.812z"></path>
        <path fill="#E9FCFA" d="m4481 480 2 1a858 858 0 0 1-2.937 3.5l-1.653 1.969L4477 488h-1c-.312-2.312-.312-2.312 0-5 2.375-1.875 2.375-1.875 5-3"></path>
        <path fill="#E7F8F7" d="m2804 477 3 2-7 6c1.125-2.972 2.223-5.334 4-8"></path>
        <path fill="#F5DB75" d="M365 463c0 3.174-.31 4.38-2 7-2.125 1.25-2.125 1.25-4 2 1.312-3.937 2.92-6.227 6-9"></path>
        <path fill="#E7FAF9" d="m2377 468 4 1v2l3 1c.688 2.063.688 2.063 1 4l-2-1v-2l-1.875-.812C2379 471 2379 471 2377 468"></path>
        <path fill="#FBF3C9" d="M981 460c2.865 1.05 3.84 1.701 5.313 4.438C987 467 987 467 986 470l-2-6h-2z"></path>
        <path fill="#FEFACD" d="m605 458 1 2-1.875 2.313c-2.181 2.683-2.181 2.683-4.125 5.687.432-4.752 1.328-6.92 5-10"></path>
        <path fill="#A8DAD0" d="M2843 449v3c-2.565 2.565-4.477 2.54-8 3 2.366-2.615 4.942-4.264 8-6"></path>
        <path fill="#FEF3CF" d="m664 447 7 1 1 4-4-1v-2z"></path>
        <path fill="#A8DACF" d="M4654 443c3.083 1.199 6.063 2.477 9 4l-1 2-8-4z"></path>
        <path fill="#E5FCF9" d="m2973 441-9 6c.188-1.812.188-1.812 1-4 4.256-3.248 4.256-3.248 8-2"></path>
        <path fill="#FDF3C3" d="m923 424 7 1c-2 2-2 2-5.125 2.125L922 427z"></path>
        <path fill="#E7FDFC" d="M3091 326c1.274 2.547.802 3.428.063 6.125l-.59 2.195L3090 336c-2-2-2-2-2.312-4.437.36-2.956 1.024-3.752 3.312-5.563"></path>
        <path fill="#FBC044" d="m1027 243 5 1-1 6c-1.892-2.386-3.024-4.072-4-7"></path>
        <path fill="#FDF9D0" d="M1382 721c-1.625 1.563-1.625 1.563-4 3-3.25-.312-3.25-.312-6-1 6.25-3.125 6.25-3.125 10-2"></path>
        <path fill="#FEF3D1" d="M1630 701c0 3.908-1.506 5.116-4 8v-2l-2-1z"></path>
        <path fill="#FFF5D9" d="m985 699 1 3-5 4-2-1z"></path>
        <path fill="#F8D26E" d="m1434 698 9 1 1 3-10-3z"></path>
        <path fill="#ABDCCF" d="M4963 696c1.563 1.25 1.563 1.25 3 3-.312 2.188-.312 2.188-1 4l-4-5z"></path>
        <path fill="#F6CF62" d="M580 696h4a129 129 0 0 1-2 7l-2 1z"></path>
        <path fill="#F7C84E" d="M586 685h5l-3 6c-2-3-2-3-2-6"></path>
        <path fill="#A3D4CB" d="M1816 642c2.375.625 2.375.625 5 2 1.313 3.125 1.313 3.125 2 6-2.648-2.578-4.944-4.916-7-8"></path>
        <path fill="#FEF4C4" d="m1349 625-3 1v2h-6v-2c3.073-.91 5.801-1.089 9-1"></path>
        <path fill="#FEF6CB" d="m629 619 1 2a136 136 0 0 1-3 7h-2c1.059-3.403 2.009-6.014 4-9"></path>
        <path fill="#E6FAF9" d="M2882 612c3.735.498 5.812.875 9 3v2c-3.775-1.09-6.47-1.908-9-5"></path>
        <path fill="#FEF4BF" d="M509 578c3.672 3.08 4.568 5.248 5 10-2.912-3.288-4.497-5.599-5-10"></path>
        <path fill="#FFF2CF" d="m551 560 1 2c-.777 1.945-.777 1.945-1.937 4.125l-1.153 2.195L548 570c-.621-1.797-.621-1.797-1-4 1.938-3.25 1.938-3.25 4-6"></path>
        <path fill="#9ED4CC" d="M3946 558h2v2h2l-1 4h-2z"></path>
        <path fill="#FAC647" d="M936 542a91 91 0 0 1-4 4h-2l-1-3c3.625-2.125 3.625-2.125 7-1"></path>
        <path fill="#DFFAF7" d="m3724 526-1 3h-10v-1q2.187-.504 4.375-1l2.46-.562C3722 526 3722 526 3724 526"></path>
        <path fill="#F5C84E" d="m1510 511 9 1 1 3-10-3z"></path>
        <path fill="#FACB5F" d="M1612 486c2.784 1.706 3.854 2.476 4.75 5.688L1617 494l-2-1v-2l-3-1z"></path>
        <path fill="#F7D669" d="m1167 480 1 2c-1.133 3.4-2.125 4.053-5 6l-2-1z"></path>
        <path fill="#FFF5D6" d="m872 464 4 1-7 6-1-3h3z"></path>
        <path fill="#FDF8D5" d="m432 441 2.313.938c1.875.74 3.774 1.424 5.687 2.062v4c-2 0-2 0-4.562-2.375C433 443 433 443 432 441"></path>
        <path fill="#ECFAFA" d="M3853 440c2.75.25 2.75.25 5 1-2.762 2.762-5.207 2.579-9 3 1.688-2.062 1.688-2.062 4-4"></path>
        <path fill="#F3CE52" d="m956 432 8 6c-3.204 0-5.094-.743-8-2z"></path>
        <path fill="#E6FBF9" d="M1866 356c-2.353 2.724-4.625 3.814-8 5 .375-1.937.375-1.937 1-4 2.463-1.231 4.28-1.072 7-1"></path>
        <path fill="#E7FEFD" d="m3442 304 10 2v1h-12z"></path>
        <path fill="#E7FEFD" d="m2498 304 10 2v1h-12z"></path>
        <path fill="#F8C74D" d="M1022 230h2v2h-2zm-3 1 3 1 1 5-3-1z"></path>
    </g>
</svg>
